<?xml version="1.0" encoding="UTF-8"?>
<svg version="1.1" viewBox="0 0 2000 2000" width="2000" height="2000" xmlns="http://www.w3.org/2000/svg">
<path transform="translate(1255,131)" d="m0 0h15l22 3 16 5 13 6 16 10 5 3 13-1 27-6 14-3 16-1 13-2 17-1h23l19 1 11 2 22 2 34 7 15 4 15 5 19 7 15 5 15 8 14 6 13 8 11 6 8 6 22 15 14 12 8 7 16 15 14 15 6 8 11 12 9 13 6 10 8 13 9 15 16 32 8 20 12 31 8 27 2 5 2 10 5 22 6 26 2 14 2 21 2 6 3 22 1 18 2 10 2 27 1 7 2 55 1 11v21l-1 37-1 14-1 28-4 36-1 4-1 24-3 21-2 8-2 21-2 13-4 25-2 10-6 27-2 13-4 15-2 12-4 13-5 21-6 20-2 5-5 23-6 19-8 22-7 23-8 20-7 20-12 29-8 21-8 16-12 26-20 40-12 21-6 11-6 10-10 17-7 12-9 15-6 9-7 10-10 15-9 13-7 11-8 10-6 8-4 6 1 6 7 8 10 9 5 5 1 3 1 122 1 12 8 7 10 16 24 38 11 17 12 19 13 20 9 14 7 12v41l-9 1h-1405l-2-1v-39l7-8 8-8 8-7 25-25 8-7 13-12 8-7 14-14 8-7 11-11 8-7 2-5v-2l-5-1-23-14-9-6-15-12-13-10-11-9-13-12-8-7-10-9-36-36-9-11-8-8-8-10-14-18-10-13-7-10-10-16-12-19-7-13-7-10-8-17-7-14-9-21-5-10-6-16-7-19-12-35-6-20-3-11-4-20-6-26-4-26-2-9-3-28-2-41v-65l3-48 5-30 3-19 3-12 3-14 4-16 6-25 6-16 5-16 11-25 10-22 8-13 6-12 8-13 11-16 10-14 8-10 9-11 12-13 7-8 11-11 7-8 15-14 14-12 13-11 3-1v-2l20-15 11-8 12-9 12-8 6-5 7-4 10-7 5-4 1-5-7-9-8-11-6-10-8-19-4-16-1-10v-27l2-14 6-18 7-14 7-11 8-10 13-13 14-10 10-6 18-7 11-3 14-2 15-1 26 3 16 5 18 8 11 8 9 7 6 5 11 14 7 10 7 14 6 16 5 22 11-1 18-8 30-9 14-6 26-10 21-6 25-9 16-6 17-5 12-5 23-9 17-6 25-12 15-6 25-9 11-5 15-6 11-5 28-13 33-18 12-7 9-6 24-15 17-12 16-12 14-10 15-11 5-4 10-7 4-2h5v-26l2-22 5-16 8-18 7-11 10-13 8-8 13-10 13-8 16-7 18-5z" fill="#8F96E5"/>
<path transform="translate(1031,370)" d="m0 0h8l12 4 17 9 25 15 15 8 36 14 16 8 11 8 9 9 8 13 4 12 2 14v16l-2 27v37l2 28v8l9 3 5 4 5 9 3 10v21l-4 17-12 27-7 9-8 5-3 1h-13l-2 6-3 21-3 31-3 48-1 23v13l11 7 10 8 10 9 13 13 12 16 10 17 8 19 2 10 5 2 24 16 16 12 13 10 16 15 9 9 9 11 9 9 17 13 18 13 17 13 14 12 7 7 10 14 6 12 1 7-15 44-16 44-17 43-14 34-13 30-7 15-17 35-10 19-10 18-13 22-3 6-13 58 294 1 8 7 10 10 8 7 16 16 8 7 12 11 4 4 1 3 1 122 1 12 8 7 10 16 24 38 11 17 12 19 13 20 9 14 7 12v41l-9 1h-1405l-2-1v-39l7-8 8-8 8-7 25-25 8-7 13-12 8-7 14-14 8-7 11-11 8-7 10-9 9-9 8-7 4-4 115-1 21-14h44l133 3 10 1v11h6l-2-9-7-52v-7l-10-1-26-5-28-7-36-12-26-11-23-12-17-11-13-10-3-3-1-5v-76l3-42 5-42 7-43 9-43 10-40 13-43 17-50 12-31 17-41 12-27 14-30 20-40 16-31 13-23 16-9 17-8 30-11 36-11 44-11 13-3 8-8 15-11 27-14 14-6-1-17-2-7-12-9-10-9-14-14-11-14-7-10-11-18-8-16-7-19-3-14-1-48-1-14-4-18-2-10-9-25-6-23-3-18-1-21-5-37v-27l3-13 7-13 8-9 14-10 25-12 29-11 50-17 16-8z" fill="#010106"/>
<path transform="translate(1156,853)" d="m0 0 5 2 14 10 15 14 5 5v2h2l12 16 9 15 7 15 5 16v9l-2 3h-59l-17 2-14 4-4 4 1 18 3 28v15l-3 2-10-2-16-6-29-14-18-6-19-3-15 1-18 6 2 3 8-4 12-3h16l18 4 16 6 25 12 21 8h9l3-2 1-3v-11l-4-38v-10l3-3 16-4 8-1h30l-3 12-10 26-10 23-10 19-12 21-10 15-7 10-10 13-11 13-9 10-17 17-9 7-16-2-6-3-7-1-14 3-10 6-8 8-4 8-1 4v9l2 5v14l3 8 4 5 8 4 3 1h16l13-4 12-7 10-10 6-10 3-9v-12l-2-7 11-9 19-19 7-8 14-17 10-14 10-15 13-22 14-27 12-28 12-36 18-1 5-5 1-6 11 6 11 8 17 12 11 9 13 11 17 17 9 11 12 11 13 10 18 13 16 12 13 11 11 11 7 10 7 14-2 9-15 44-15 41-18 46-14 33-12 27-16 34-10 19-8 16-9 16-12 20-14 21-9 12-8 10-18 20-5 5-71 1-1 73-17 16-15 14-11 9-2 2-10-1-39-9-40-11-27-9-34-13-48-18-28-13-22-11-23-13-23-14-16-11-11-8-17-13-2-4 13-33 14-35 13-32 5-9 19 2 65 10 48 9 31 7 24 7 16 8 14 11 11 11 9 11 10 13 10 15 10 16 13 24 13 26v2h3l-3-10-20-38-14-23-7-10-8-11-8-10-9-10-13-13-7-5 4-1 36 12 21 9 12 7 9 5 12 9 12 12 2 3h2l-2-5-11-12-14-10-17-10-23-10-36-12-21-5 1-4 13-21 14-22 10-16 16-25 28-44 15-24 15-23 14-23 13-17 8-8 4-5h2v-2l11-9 8-7 15-10 16-9 15-7 19-7 23-6h4v-4l-25 6-27 10-23 12-12 8-16 12-12 11-11 11-10 13-9 14-11 17-1-4 8-26 11-28 10-21 10-17 7-10 1-4-4 2-12 19-12 23-10 25-10 30-6 24-9 14-7 3-3 2h-3v2h-2v2l-3 2h-3v2l-4 4h-4l-2 4-14 12h-2l-2 4h-2v2h-2v2l-5 4-1 2h-2v2h-2l-2 4h-2l-2 4h-2v2h-2l-2 6-7 6-3 4h-2l-2 6h-2l-2 5-5 6-2 5h-3l-2 6-3 4h-7l-15-5-17-4-16-3 3-3 8-6 8-8 8-13 5-12 4-16 2-15v-35l-3-24-6-29-7-25-6-16-8-16-8-13-9-10-9-7-11-5-6-2-14-2v-15l3-29 5-29 8-32 10-29 5-12 5 2 17 9 5 5 2 4-1 5-14 14-3 7 1 9 4 5 21 12 5 6v2h3l-3-7-6-5-15-8-7-8v-7l6-8 10-10 1-2v-8l-5-7-8-5-14-7-6-7-1-8 5-9 6-6h2l1-3 17-12 17-9 18-8h3l1 8v21l-2 16-6 24-4 27-1 10v23l2 12 2 4 2 1h10l13-5 19-10 21-14 19-14 13-11 14-12 15-14 5-5 11-12 11-14 9-13 8-16z" fill="#636FE6"/>
<path transform="translate(467,1697)" d="m0 0h107l-4 4-44 29-22 15-36 24-2 1-1 32h20l8 5h5l2-5h8l8 5 6 1 1-6h6l8 5h5l1-5h7l8 5h5l1-5 5 1 7 4h6l1-5 5 1 7 4h5l1-5 5 1 7 4h6l1-5 5 1 7 4h5l1-5 5 1 7 4h6l1-5 5 1 7 4h5l1-5 5 1 7 4h6l1-5 7-1 87-87 1-17h374l1 19 9 9 8 7 14 14 8 7 11 11 8 7 6 6 408 1v-81h6l15 24 11 17 12 19 16 25 24 38 8 12v1h-1403l6-7 10-10 8-7 10-10 8-7 10-10 8-7 10-10 8-7 10-10 8-7 13-13 8-7 8-8 8-7z" fill="#E1E7E6"/>
<path transform="translate(1233,1557)" d="m0 0h400v217h-400z" fill="#E1E7E6"/>
<path transform="translate(1156,853)" d="m0 0 5 2 14 10 15 14 5 5v2h2l12 16 9 15 7 15 5 16v9l-2 3h-59l-17 2-14 4-4 4 1 18 3 28v15l-3 2-10-2-16-6-29-14-18-6-19-3-15 1-18 6 2 3 8-4 12-3h16l18 4 16 6 25 12 21 8h9l3-2 1-3v-11l-4-38v-10l3-3 16-4 8-1h30l-3 12-10 26-10 23-10 19-12 21-10 15-7 10-10 13-11 13-9 10-17 17-9 7-16-2-6-3-7-1-14 3-10 6-8 8-4 8-1 4v9l2 5v14l3 8 4 5 8 4 3 1h16l13-4 12-7 10-10 6-10 3-9v-12l-2-7 11-9 19-19 7-8 14-17 10-14 10-15 13-22 14-27 12-28 10-29 3-1 18 18 7 9 8 14 4 8 3 9 2 10-1 2-10 1-10 3-13 4-4 2-7 2-4 2h-4v2h-4v2l-9 5-10 9h-3v4h-2l-2 4h-2l-1 4-3 4-1 3h-2l-1 5h-2l-2 7-3 5-3 7-5 12-3 11-10 25-10 30-6 24-9 14-7 3-3 2h-3v2h-2v2l-3 2h-3v2l-4 4h-4l-2 4-14 12h-2l-2 4h-2v2h-2v2l-5 4-1 2h-2v2h-2l-2 4h-2l-2 4h-2v2h-2l-2 6-7 6-3 4h-2l-2 6h-2l-2 5-5 6-2 5h-3l-2 6-3 4h-7l-15-5-17-4-16-3 3-3 8-6 8-8 8-13 5-12 4-16 2-15v-35l-3-24-6-29-7-25-6-16-8-16-8-13-9-10-9-7-11-5-6-2-14-2v-15l3-29 5-29 8-32 10-29 5-12 5 2 17 9 5 5 2 4-1 5-14 14-3 7 1 9 4 5 21 12 5 6v2h3l-3-7-6-5-15-8-7-8v-7l6-8 10-10 1-2v-8l-5-7-8-5-14-7-6-7-1-8 5-9 6-6h2l1-3 17-12 17-9 18-8h3l1 8v21l-2 16-6 24-4 27-1 10v23l2 12 2 4 2 1h10l13-5 19-10 21-14 19-14 13-11 14-12 15-14 5-5 11-12 11-14 9-13 8-16z" fill="#E0E6E5"/>
<path transform="translate(918,899)" d="m0 0h2l-2 5-11 25-10 29-7 26-5 26-4 30-2 32-17 9-10 9-8 10-7 15-13 38-9 34-5 26-2 16v41h-2l-6-18-4-17-2-9-4-14-5-47-5-29-5-16-3-1 3 9 5 22 5 38 4 44 4 68 2 49v19l-16 7-16 10-13 10-15 14-10 10-9 11-6 7-23 2-22 4-6 1-1 2-10 1-8 1-1-2v-22l1-23 6-49 8-56h2v-16h2l1-10 3-22 3-12 7-44 3-12 6-36 11-28 13-30 15-33 16-33 13-26 12-22 11-20 5-5 16-9 27-11 36-12 37-10z" fill="#E1E7E6"/>
<path transform="translate(1253,1100)" d="m0 0h16l7 2v2l-7 4-7 3-4 1v2l-9 5-9 9-6 9-1 3-1 20h2v2h2v2l4 2 8 2v3l8 2 2 1v2l6 1 1 2 3 1 6 7v3h2v2h2l2 3v5h2l5 16 1 7v22l-6 27-2 8h-2l-1 6-3 13-3 7-1 6h-2v6l-4 10-6 20-2 6h-2v6h-2v6l-5 12-4 10-1 4h-2l-2 6-5 8-1 4h-2v2h-2l-2 5-4 5h-2v2l-3 2-2 4h-3v2h-2v2l-11 8-13 6-14 3h-20l-8-3v-2l-4-1-8-10-9-8-10-7-17-10-23-10-36-12-21-5 1-4 13-21 14-22 10-16 16-25 28-44 15-24 15-23 14-23 13-17 8-8 4-5h2v-2l11-9 8-7 15-10 16-9 15-7z" fill="#E1E7E6"/>
<path transform="translate(798,125)" d="m0 0h21l16 2 16 5 16 7 14 9 10 8 13 13 11 16 8 16 5 15 3 17 1 17-2 21-5 18-8 18-10 15-11 12-9 9-8 6-13 8-18 8-21 5-9 1h-19l-12-1-15-4-13-5-17-9-12-9-10-9-7-8-10-14-8-15-7-20-4-22v-11l3-20 6-20 5-12 10-16 9-10 7-8 8-7 15-10 14-7 21-7z" fill="#DFE5E5"/>
<path transform="translate(482,410)" d="m0 0h19l19 3 18 6 16 8 11 8 10 9 8 8 10 14 8 15 6 17 3 15 1 16-2 21-4 16-7 17-9 15-11 13-13 12-15 10-18 8-19 5-6 1h-30l-16-3-19-7-13-7-14-10-15-15-10-14-8-16-5-14-3-15-1-8v-17l2-15 4-15 6-15 8-14 9-11 8-9 14-11 13-8 14-6 13-4z" fill="#DFE5E5"/>
<path transform="translate(1641,768)" d="m0 0h17l19 3 16 5 17 8 14 10 12 11 11 13 9 15 7 17 4 17 1 6v28l-3 16-6 17-9 17-8 11-12 13-13 10-13 8-14 6-18 5-6 1h-32l-19-4-15-6-15-8-13-10-15-15-9-13-8-16-5-14-3-13-1-9v-21l3-18 6-18 9-17 10-13 10-11 10-8 10-7 17-8 16-5z" fill="#DFE5E5"/>
<path transform="translate(1518,412)" d="m0 0h31l19 4 16 6 11 6 10 7 11 9 8 8 11 15 8 16 5 13 3 12 1 7v31l-4 18-6 16-7 13-8 11-9 10-9 9-15 10-16 8-16 5-19 3h-18l-19-3-21-7-18-10-11-9-8-7-9-11-7-10-8-16-6-18-3-19v-17l2-15 4-15 5-12 8-15 11-14 12-12 11-8 14-8 15-6z" fill="#E0E6E5"/>
<path transform="translate(1250,136)" d="m0 0h26l20 4 15 5 13 7 12 8 15 14 11 14 8 14 5 11 4 13 3 18v20l-3 18-5 16-8 17-10 14-12 13-14 11-11 7-20 8-16 4-7 1h-25l-20-4-17-6-13-7-10-7-10-9-9-9-9-12-10-19-5-15-3-16v-29l4-20 6-15 8-15 10-13 6-7 8-7 12-9 17-9 18-6z" fill="#E0E6E5"/>
<path transform="translate(372,768)" d="m0 0h17l20 3 18 6 16 8 14 10 8 7 7 8 9 12 8 14 7 19 3 14 1 10v16l-3 19-5 16-4 10-10 16-8 10-12 12-14 10-17 9-19 6-11 2-22 1-20-3-17-5-17-8-14-10-13-12-10-12-9-15-6-14-5-18-2-20 1-17 3-16 6-17 9-17 10-13 13-13 15-11 21-10 18-5z" fill="#E0E6E5"/>
<path transform="translate(1184,604)" d="m0 0h12l8 5 5 7 3 11v20l-4 16-11 25-7 9-6 4-3 1h-11l-13-3 1 3 3 1-1 14-6 25-9 24-9 17-12 17-10 11-11 9-10 7-16 8-13 4-11 2h-25l-17-4-14-6-14-9-11-10-2-1v-2l-4-2-7-8-5-5v-2h-2l-11-15-12-19-8-14-9-24-3-13-1-11v-41l5 5 5 4 13 3 10 1h20l11-2 10-5 5-5 2 1-6 16-1 5v13l3 6 6 3h8l12-4 2-1 1-3-17 5-8-1-3-4-1-3v-11l5-15 10-25 3-14 2-19h13l8 3v18l3 15 4 10 9 10 10 5 10 2h21l20-3 6-3 6-7 6-13 4-18 1-13 3-1 4 4 4 8v2h2l6 7 5 5-3 8 4 1 1-5 9-16 9-11 8-6z" fill="#8C8D83"/>
<path transform="translate(823,1349)" d="m0 0 19 2 65 10 48 9 31 7 24 7 16 8 14 11 11 11 9 11 10 13 10 15 10 16 9 16 2 9 3 6 2 8 2 3 1 8-5-3-7-8-2-3-3-1-4-4v-2l-4-1-6-4-9-4h-9l-4 1v2h-2v2h-2l-2 5-7 12-3 1-1 4-1 2h-2v2l-7 5-7 3-10 2h-17l-14-5-9-3-20-10v-2l-5-1-11-5v-2l-8-2v-2l-4-1-8-4-4-1-3-3-5-1v-2l-6-2-11-6-7-3v-3h-6l-8-5-8-3v-2l-9-3-1-3h-5l-3-2v-2l-6-1-18-9v-2l-6-1-6-4-13-6 1-7 26-64z" fill="#E1E7E6"/>
<path transform="translate(1161,1571)" d="m0 0h2v122h-365l-6-48-2-14v-5l19 2 17 2 27 2 86 1 9-2 10-5 10-9 6-7 6-9 4-8 12-3 13-5 6-1 31 9 18 5 33 8 19 4 4-1 13-12 8-7 14-13h2v-2h2z" fill="#4452E3"/>
<path transform="translate(1054,451)" d="m0 0 3 1 4 8 9 10 9 6 19 7 21 6 12 6 5 6 2 6 1 10-2 16-8 38-1 9v12l2 14-6-2-14-6-18-4h-27l-23 5-13 5-10-2-14-1-1-14-3-1v16l-6 2-16-6-19-4h-28l-18 4-7 3-4-1-2-26v-30l3-17 5-17 8-19 7-13 1-1h29l27-2 22-4 21-6 20-8z" fill="#8C8D83"/>
<path transform="translate(718,1448)" d="m0 0h28l10 5 6 4v1h-16l-22 2-22 5-19 7-16 8-11 6-9 6-1 3 8-4 13-8 16-8 18-7 21-5 16-2h19l14 2 9 3 13 10 18 13 17 11 15 9 18 10 22 12 34 16-1 41-1 1-35 2h-32l-43-3-17-3-14-2-30-7-8-2v-2h-6l-5-3-8-2-19-8-10-5v-2h-5l-3-2v-2l-6-2-2-1v-3l-4-1-4-2-1-2-3-1v-2l-4-2-8-6-2-6h-2l-4-5v-3h-2l-5-10-1-5v-9h2v-6l2-4h2v-2h2v-3l6-4 11-7 11-5 12-3 4-2 20-3z" fill="#E1E6E6"/>
<path transform="translate(890,1089)" d="m0 0h14l12 5 10 9 6 8 8 14 8 20 7 25 5 24 3 22 1 24-1 16-4 19-4 11-4 3-14 7-9 8-3 8 2 8 2 4-7-1-22-2-3-1-3-8-5-3-6-1-31-1-9-7-7-9-5-10-4-17-1-9v-19l2-19 5-25 7-27 12-36 5-13 6-10 10-10 10-5z" fill="#E1E6E6"/>
<path transform="translate(679,1149)" d="m0 0 2 1-3 20-6 30-6 36-3 12-4 26-1 6h-2v16h-2l-1 16-5 32-5 43-2 14-1 23v24l12-3h6l3 2 25-5 23-2 14 1 15 4 6 2v1l-40 2-20 3-7 3-11 3-16 8-8 6h-2v3h-2v2h-2l-2 10h-2l2 14 4 8v2h2l3 5 1 3h2l2 3v3l4 2 8 6v2l4 1v2l5 2 3 1v3l6 2 2 1v2l8 2v2l6 2 10 5 13 5 9 3 4 2 6 1v2l8 1 34 8 14 2 13 2 43 3h32l35-2 2-3 1 19 3 17 2 8h-65l-40-3-37-5-31-6-31-8-30-10-26-11-19-10-11-6-13-9-10-8-3-5-1-40v-14l2-38 3-35 5-39 7-42 8-37 8-32 12-42 12-36 11-31z" fill="#636FE6"/>
<path transform="translate(781,164)" d="m0 0h56l11 4 7 8 3 10v24l-1 2h-13v14h15l8 2 6 4 5 8 1 4v64l-5 10-6 5-4 2h-110l-8-4-6-8-2-6v-63l4-9 5-5 5-3 20-1v-14h-12v-28l4-10 8-7z" fill="#010108"/>
<path transform="translate(605,1681)" d="m0 0 95 2 82 2-2 4-72 72-8 7-1 1h-7l4-3-1-5-7 1-9 5-2 2-4-1 4-2-1-5-9 2-6 4-2-1v-4l-5-1-9 4-5 4-4-1 4-2-1-5-9 2-5 3h-2l-1-4-5-1-12 6-2 2-4-1 4-2-1-5-9 2-8 4v-6l-8 1-9 5-2 2-4-1 4-2-1-5-6 1-10 5-2 2h-6l3-2h2v-6l-8 1-10 5-2 2-5 1-1-2 5-1v-6l-8 1-8 4-3 3-9 1v-2l5-1v-6l-8 1-8 4-4 3h-7l4-4 44-29 16-11 24-16 28-19z" fill="#DEE3E4"/>
<path transform="translate(548,470)" d="m0 0h11l13 4 9 7 7 8 4 8 2 10-1 13-4 10-7 10-11 7-19 7-107 36-5 1h-12l-10-3-10-6-8-9-4-8-2-7v-14l3-10 6-10 8-7 10-5 35-12 78-26z" fill="#0101B1"/>
<path transform="translate(1155,774)" d="m0 0 1 3-3 57-1 28-8 16-8 12-13 16-11 12-20 20-11 9-8 7-10 8-19 14-11 7-13 8-16 8-13 4-5-2-2-5-1-8v-23l3-26 5-24 3-10 2-22v-30l3 3 6 11 11 12 12 6 3 1h11l13-4 13-7 20-14 14-13 17-17 13-17 10-15z" fill="#8C8D83"/>
<path transform="translate(1594,831)" d="m0 0h8l16 4 12 7 10 8 10 10 10-11 14-10 11-5 7-2h18l10 3 9 6 5 6 2 6v14l-4 13-10 19-10 13-9 10-15 15-15 11-16 8-9 2-16-7-11-7-13-11-8-7-3-3v-2l-4-2-11-14-9-14-7-15-3-12v-9l3-9 6-7 12-6z" fill="#0101B1"/>
<path transform="translate(366,820)" d="m0 0 15 1 15 4 16 7 13 9 11 10 9 13 5 11 2 8v17l-5 13-6 12-9 10-11 7-14 5-6 1h-20l-14-3-14-5-15-9-13-12-8-11-6-12-3-13v-12l3-12 8-16 6-8 9-7 8-4 12-3z" fill="#0101B1"/>
<path transform="translate(1167,1498)" d="m0 0 7 6 7 7 8 7 17 17 8 7 14 14v215l-4-2-12-12-8-7-12-12-8-7-13-13-4-3-1-18v-198z" fill="#E0E6E5"/>
<path transform="translate(1208,200)" d="m0 0 12 1 108 36 11 6 8 9 5 12v16l-5 12-9 10-10 5-10 2-11-1-108-36-10-5-8-8-5-9-2-9v-8l2-9 5-9 4-5 11-7z" fill="#0101B1"/>
<path transform="translate(791,1216)" d="m0 0 2 3 3 9 3 15 3 11 4 12v4h3l4 16 5 12 7 11 9 9 11 7 14 6 10 3h18l6-5 4-9 15 1 10 1 7 1 6 2h9l20 4 17 4 11 4h7l5-9 3-1 2-5 7-10h2l1-4 7-8h2l2-4h2l2-6h2v-2l7-6 1-2h2v-2h2l2-4 4-2v-2h2v-2l8-7 6-5h2l2-4 4-4h4l2-4h2v-2l6-2v-2h2v-2l6-3 6-2-2 5-11 17-14 22-12 19-7 11-3 5h-2l-1 4-6 10-14 22-9 14-12 19-1 2-11-3-15-4-36-8-36-7-52-8-34-5h-8l-8 19-13 1-4-84-3-49z" fill="#4553E3"/>
<path transform="translate(1370,1495)" d="m0 0h199l16 15 9 9 8 7 9 9 2 1v2h2v2l4 2 10 10v1h-200l-17-17-8-7-9-9-8-7-17-17z" fill="#E0E6E5"/>
<path transform="translate(1172,1495)" d="m0 0h192l7 7 8 7 10 10 3 2v2l4 2 17 17 8 7 3 4h-193l-16-16-8-7-13-13-8-7-11-11-3-2z" fill="#E0E6E5"/>
<path transform="translate(1399,1599)" d="m0 0h53v37h36v54h-36v37h-53l-1-3v-34h-38v-54h39l-1-2v-34z" fill="#0101B1"/>
<path transform="translate(1161,1638)" d="m0 0h1v55h-364l-2-15v-6l6 1 19 3 3 1 11 1 13 2 16 2 3 1h61l16-4 18-4 18-7h4v-2l4-2h4v-2l13-7 5-3h2v-2h2v-2l6-4h4v-2l6-1h10l16 4 14 6 16 4h29l19-4h2v-2l10-3 8-4z" fill="#E1E7E6"/>
<path transform="translate(1579,1082)" d="m0 0h5l5 8 3 4 3 7 5 8v4l13-7h3v-2l7-3 5-3h4l7 13 3 6v3h2l8 16-2 4h-2v2l-6 2v2l-12 5-5 3 1 5 12 24v5l-14 8-12 6-8 5-3 1-5-5-2-6-3-5-8-15-6 2-19 10-6 1v-2h-2l-4-8-2-2-3-7-5-9-2-5-2-3 1-5 14-8 12-6 1-3h-2l-3-8-1-4h-2l-3-7-1-5h-2l-1-6 3-3 6-3h2v-2l16-8z" fill="#8C94E5"/>
<path transform="translate(758,622)" d="m0 0 7 1 10 3 9 3 10 4 6 2-1 7-7 21-1 2v6l20 7 9 4v6l-5 12-4 12-5 12-1 1-7-1-8-3-6-1v-2l-11-1-4 10-5 15-2 5-1 1h-7l-17-6-7-3-10-3v-10l3-6 6-18-1-4-10-2-14-5-4-3v-6l3-7 3-10 4-13h2l1-5 1-2 6 1 13 5 10 3 3 1 2-6 6-17 2-8h2z" fill="#8D94E5"/>
<path transform="translate(442,1208)" d="m0 0 3 2 5 28 2 5 11-1 7-2 13-1 2 3 3 14 3 18 1 3v7l-16 4-12 2-3 1v9l3 14v13l-10 2-14 3-12 2h-6l-3-7-2-14-1-1-1-13-14 2-1 1-18 2-2-2-5-29-2-9 1-5 6-3 12-1 13-4 1-3h-2l-4-32 19-4 20-3z" fill="#8D94E5"/>
<path transform="translate(1515,442)" d="m0 0 4 1 3 6v5l-8 7-7 4 2 6 2 2 11-2 4 1 11 23 8 16 8 17 8 16 11 23 8 16 1 4-10 9 1 7 5 16v4l-4-1-14-19-10 2h-8l-19-39-12-25-20-41-4-10 3-5 6-5-2-9-12 4h-9l-3-4-1-7 8-7 17-9 15-5z" fill="#010107"/>
<path transform="translate(480,496)" d="m0 0 5 4 10 14 8 16 5 16 2 11v7l-41 14-27 9h-15l-11-4-9-7-6-9-3-7-1-8 2-13 5-10 9-9 8-4 47-16z" fill="#DFE5E5"/>
<path transform="translate(1594,831)" d="m0 0h8l16 4 12 7 10 8 10 10 10-11 14-10 11-5 7-2h18l10 3 9 6 5 6 2 6v14l-4 13-10 19-10 13-9 10-15 15-15 11-16 8-9 2-16-7-11-7-13-11-8-7-3-3v-2l-4-2-11-14-9-14-7-15-3-12v-9l3-9 6-7 12-6zm-2 3v2h-8v2h-4v2h-4v2h-2v2h-2v2h-2v2h-2l-2 8v8h2v8h2v6h2l1 5 1 3h2v4h2v4h2v2h2v6l2 3 6 2v-2h16l2-1v-2h2l5-10 5-9 3 9 7 30 2 6 4-4 8-14v-2h2l2-3 28-1 4-8 3-9 3-8 1-1 6 36 3 3 6-7 3-4v-2h10l4-4-1-4h2l4-8v-2h2v-4h2l2-6v-6h2v-20h-2l-2-6-10-6h-4l-1-2h-24l-11 5-6 3v2l-6 2v2h-2v2h-2v2h-2v2h-2v2h-2v2h-2v2h-2v2h-2v2h-2l-4-8h-2v-2h-2v-2h-2v-2h-2v-2l-6-2v-2h-2v-2h-4v-2l-8-4h-4v-2l-9-1-1-1z" fill="#0101B1"/>
<path transform="translate(1066,597)" d="m0 0h26l17 4 14 6-1 16-4 18-4 9-4 6-5 5-12 3-11 1h-19l-10-2-8-4-5-4-7-12-3-10-1-7v-16l1-3 13-5 16-4z" fill="#9E9EA2"/>
<path transform="translate(933,597)" d="m0 0h26l23 5 12 5 1 1v21l-4 15-6 10-9 7-8 3-7 1h-20l-19-3-6-4-4-5-5-10-3-27v-10l12-5z" fill="#9E9EA2"/>
<path transform="translate(776,212)" d="m0 0h64l1 18h21l6 3 5 6 3 9v7h-135v-8l4-10 7-6 3-1h21z" fill="#DEE4E3"/>
<path transform="translate(741,289)" d="m0 0h135v15l-4 11-6 5-2 1h-111l-6-4-4-6-2-8z" fill="#DEE4E3"/>
<path transform="translate(742,258)" d="m0 0h132l2 1v26l-2 1h-132l-1-26z" fill="#0101B1"/>
<path transform="translate(806,1369)" d="m0 0h3l-1 6-12 29-15 38-7 17-6-2-15-9-11-5-13-4-13-2 2-5 16-17 17-17 9-7 10-7 14-8 12-5z" fill="#8D8D83"/>
<path transform="translate(798,125)" d="m0 0h21l16 2 16 5 16 7 14 9 10 8 13 13 11 16 8 16 5 15 3 17 1 17-2 21-5 18-8 18-10 15-11 12-9 9-8 6-13 8-18 8-21 5-9 1h-19l-12-1-15-4-13-5-17-9-12-9-10-9-7-8-10-14-8-15-7-20-4-22v-11l3-20 6-20 5-12 10-16 9-10 7-8 8-7 15-10 14-7 21-7zm4 4-21 3-21 7-15 8-12 9-3 2v2l-4 2-11 12-10 15-8 17-5 17-2 13v24l4 21 6 16 8 15 10 13 9 10 14 11 9 6 18 8 18 5 18 2 21-1 18-4 16-6 11-6 10-7 13-11 10-11 10-16 7-15 5-17 2-12v-26l-4-20-5-14-8-16-10-13-11-12-14-11-16-9-16-6-18-4-10-1z" fill="#161621"/>
<path transform="translate(366,820)" d="m0 0 15 1 15 4 16 7 13 9 11 10 9 13 5 11 2 8v17l-5 13-6 12-9 10-11 7-14 5-6 1h-20l-14-3-14-5-15-9-13-12-8-11-6-12-3-13v-12l3-12 8-16 6-8 9-7 8-4 12-3zm-10 4-10 2v2h-6v2h-4v2h-2v2l-4 2-6 4v4h-2l-4 8-2 8v11l1 1 1 8h2l1 6 1 4h2l2 6h2v2h2l4 8h2v2l6 4h2v2h2v2h2l1 2h3v2h4v2l4 2h4v2h4v2l16 4h30v-2h6v-2l5-1 7-3v-2h2v-2l4-2 2-4h2v-2h2l4-10v-22l-1-1-1-7h-2l-2-8h-2v-2h-2l-2-6h-2v-2h-2v-2h-2v-2h-2v-2h-2v-2h-2v-2l-3-2h-3v-2h-2v-2h-4v-2l-12-6-10-3-1-1-9-1-2-1z" fill="#010105"/>
<path transform="translate(493,405)" d="m0 0 27 3 16 5 18 8 11 8 9 7 6 5 11 14 7 10 7 14 6 16 2 9 1 14v24l-3 17-6 18-10 19-7 9-9 10-8 8-14 10-17 9-18 6-17 3h-26l-17-3-18-6-16-8-14-10-13-13-6-5-7-10-6-10-8-19-4-16-1-10v-27l2-14 6-18 7-14 7-11 8-10 13-13 14-10 10-6 18-7 11-3 14-2zm-11 5-18 3-16 5-16 8-11 7-15 13-10 12-7 11-8 16-5 16-2 10-1 10v17l3 18 4 14 7 15 7 12 9 11 13 13 18 12 15 7 16 5 12 2h30l19-4 16-6 14-8 11-8 13-12 11-14 9-16 7-19 3-16 1-20-2-17-4-16-8-18-6-10-10-13-13-13-14-10-16-8-18-6-19-3z" fill="#161620"/>
<path transform="translate(1296,546)" d="m0 0h16l8 4 8 6 1 3 3 3 4 10-1 12-3 9-2 3h-2l-1 4-9 6-5 2h-17l-9-4-7-5v-3h-2l-4-8-2-10v-6l5-12 2-1 1-3 11-8z" fill="#8A91E5"/>
<path transform="translate(1255,131)" d="m0 0h15l22 3 16 5 13 6 16 10 5 5 9 8 9 11 8 11 8 16 5 13 4 18 1 13v10l-2 17-5 19-7 16-10 16-12 13-8 8-17 12-17 8-16 5-10 2-10 1h-18l-19-3-16-5-13-6-12-7-10-8-12-11-13-17-8-15-7-21-2-9-2-17 1-19 2-14 5-15 8-17 9-13 8-10 7-7 13-10 13-8 16-7 18-5zm-5 5-20 4-16 6-15 8-13 10-8 7-9 11-8 11-10 21-5 19-1 7v29l4 19 6 16 8 15 7 9 9 10 9 9 10 7 14 8 15 6 17 4 7 1h25l20-4 16-6 12-6 14-10 12-11 10-12 8-13 7-15 5-18 2-14v-20l-3-18-6-18-9-17-8-11-11-12-10-9-14-9-13-6-15-5-17-3z" fill="#0B0B15"/>
<path transform="translate(1521,408)" d="m0 0h26l17 3 18 6 19 10 13 10 15 15 9 13 10 19 6 20 2 13v27l-4 20-6 17-9 16-9 12-11 12-17 13-17 9-18 6-15 3-14 1h-9l-21-3-16-5-11-5-11-6-12-9-10-9-10-11-10-16-7-15-5-16-3-22 1-22 4-18 5-15 9-17 11-14 6-7 8-7 12-9 14-8 15-6 17-4zm-3 4-21 5-15 6-11 6-11 8-10 9-7 7-11 15-8 16-6 18-2 10-1 10v17l3 19 6 18 8 16 10 14 8 9 8 7 11 8 16 9 21 7 19 3h18l19-3 21-7 16-9 12-9 14-14 8-11 8-14 6-14 4-16 1-6v-31l-3-15-5-15-8-16-9-13-11-12-13-11-15-9-17-7-16-4-6-1z" fill="#01010B"/>
<path transform="translate(1634,765)" d="m0 0h32l19 4 18 7 14 8 12 9 7 6 7 8 10 13 10 19 6 18 3 18v24l-3 18-5 15-8 16-9 14-11 12-7 7-14 10-10 6-15 6-14 4-13 2h-28l-19-4-17-6-15-8-16-12v-2l-4-2-5-5v-2h-2l-11-15-7-12-7-18-4-19-1-8v-16l2-16 5-19 7-16 9-14 9-11 11-11 17-12 21-10 19-5zm7 3-19 3-21 7-15 8-12 9-12 11-11 14-9 16-6 15-4 17-1 8v21l2 15 5 16 7 16 7 11 8 10 12 12 13 10 19 10 15 5 15 3h32l21-5 15-6 12-7 11-8 13-12 8-10 8-13 7-15 5-17 2-11v-28l-4-19-6-17-9-16-8-10-9-10-9-8-15-10-17-8-18-5-15-2z" fill="#01010B"/>
<path transform="translate(365,765)" d="m0 0h32l15 3 18 6 17 9 16 12 10 10 10 13 8 14 5 11 5 17 2 11v32l-4 19-6 16-8 15-10 13-8 9h-2v2l-14 11-17 10-15 6-17 4-7 1h-28l-20-4-19-7-14-8-13-10-15-15-7-10-8-14-6-14-5-19-1-7v-29l4-19 5-14 8-16 8-11 8-10 5-5 11-9 11-7 16-8 15-5zm7 3-19 3-15 5-19 9-12 9-10 9-8 8-9 13-8 15-6 17-3 16-1 19 2 18 6 21 8 16 7 11 9 11 8 8 13 10 14 8 15 6 16 4 16 2 21-1 18-4 14-5 15-8 11-8 10-9 8-8 9-13 7-12 6-16 4-18 1-9v-16l-2-15-4-15-7-17-8-13-9-11-7-8-14-11-15-9-15-6-15-4-15-2z" fill="#01010B"/>
<path transform="translate(1075,698)" d="m0 0 2 1-1 7-1 2-1 17-3 12-5 9-9 9-10 5-14 3h-10l-10-2-10-4-8-6-9-3 1-3h8l8-7 7-4 13-3 8-1 6-9 8-7 11-6 13-2h2l2-6z" fill="#010110"/>
<path transform="translate(1542,522)" d="m0 0h4v2h2v4h2v4h2v4h2v4h2v4h2l4 12h2v4h2v4h2v6h2l4 8v4h2v6h-2v2h-4v2h-2v2h-4v2l-4 2h-4v2l-12 1-2-1v-4h-2v-4h-2v-4h-2v-4h-2v-4h-2l-2-8-2-1v-5h2v-2l8-2v-2h2v-2h-4l-1 2-10 3-5-9v-4l9-4h3v-2h2v-2h-6v2l-10 3-2-2v-3h-2v-5l4-1v-2h4v-2h4v-2h4v-2l5-2h3v-2z" fill="#0101B1"/>
<path transform="translate(332,1104)" d="m0 0h20v2l5 1 7 6 2 3v4h2v20l-7 9-6 5h-3v2h-18l-9-5-6-7-3-6v-18l7-9z" fill="#8F96E5"/>
<path transform="translate(1579,1082)" d="m0 0h5l5 8 3 4 3 7 5 8v4l13-7h3v-2l7-3 5-3h4l7 13 3 6v3h2l8 16-2 4h-2v2l-6 2v2l-12 5-5 3 1 5 12 24v5l-14 8-12 6-8 5-3 1-5-5-2-6-3-5-8-15-6 2-19 10-6 1v-2h-2l-4-8-2-2-3-7-5-9-2-5-2-3 1-5 14-8 12-6 1-3h-2l-3-8-1-4h-2l-3-7-1-5h-2l-1-6 3-3 6-3h2v-2l16-8zm-2 6-14 8-11 6v8l5 8 6 10 2 5v4l-10 6-7 3-8 4v2h-2l1 5 6 11 8 15 1 1 7-1 9-6 7-4 5-2 4 1 8 16h2l1 6 1 2h2v4h8l10-6 4-2v-2l4-1 6-3v-6l-3-4-10-20 1-5 15-8 8-4 3-2-2-6-3-5-2-5-3-1-1-6-5-10-6 1-2 1v2l-6 2-13 7-5 1-2-5-9-16-4-8-1-1z" fill="#0101B1"/>
<path transform="translate(758,622)" d="m0 0 7 1 10 3 9 3 10 4 6 2-1 7-7 21-1 2v6l20 7 9 4v6l-5 12-4 12-5 12-1 1-7-1-8-3-6-1v-2l-11-1-4 10-5 15-2 5-1 1h-7l-17-6-7-3-10-3v-10l3-6 6-18-1-4-10-2-14-5-4-3v-6l3-7 3-10 4-13h2l1-5 1-2 6 1 13 5 10 3 3 1 2-6 6-17 2-8h2zm4 6-4 6-5 16-3 8-1 1h-8l-5-3-7-2-9-3-4 1-6 14-2 7-3 8 1 5 3 2 13 4 13 5-1 5-6 18-4 11 5 3 5 2h6v2l16 5 3-1 8-22 1-1v-7l8-1 13 5 11 4 3-1 5-13 6-17v-4l-17-7-12-4 1-9 4-10 3-9 1-2v-6l-10-4-11-4-7-2z" fill="#0101B1"/>
<path transform="translate(1065,1151)" d="m0 0 8 1 8 4 4 5 2 5v13l-4 9-6 9-7 7-13 8-9 3-6 1h-8l-9-3-8-7-2-5v-10l7 2h14l10-4 11-8 6-9 3-9z" fill="#DDE2E3"/>
<path transform="translate(548,470)" d="m0 0h11l13 4 9 7 7 8 4 8 2 10-1 13-4 10-7 10-11 7-19 7-107 36-5 1h-12l-10-3-10-6-8-9-4-8-2-7v-14l3-10 6-10 8-7 10-5 35-12 78-26zm-4 4v2h-8v2h-4v2h-6l-6 2v2h-6v2h-6v2h-6v2h-6v2h-6v2l-5 1 1 3h2v2h2l2 5 2 3h2v4h2v4h2v2h2l2 10h2v4h2v6h2v6l1 2 1 12h2l1 4 9-2v-2h6v-2h6v-2l12-2v-2h6v-2h6v-2h6v-2h4v-2l6-2v-2l4-2v-2h2v-2h2v-2h2l4-12v-16l-1-1-1-7-4-2-2-6h-2v-2h-2v-2l-3-2h-3v-2h-4v-2l-5-2zm-64 22-36 12-28 10-10 9-6 9-2 6-1 11 2 9 5 10 6 7 10 6 7 2h15l36-12 32-11-1-13-4-15-7-17-10-15-7-8z" fill="#010106"/>
<path transform="translate(921,1549)" d="m0 0 30 11 56 21-1 2-14 5-14 3-12 1h-14l-24-3-7-2z" fill="#8C8D83"/>
<path transform="translate(442,1208)" d="m0 0 3 2 5 28 2 5 11-1 7-2 13-1 2 3 3 14 3 18 1 3v7l-16 4-12 2-3 1v9l3 14v13l-10 2-14 3-12 2h-6l-3-7-2-14-1-1-1-13-14 2-1 1-18 2-2-2-5-29-2-9 1-5 6-3 12-1 13-4 1-3h-2l-4-32 19-4 20-3zm-5 5-3 1v2h-12l-8 2h-6l-2 2v11l1 1 2 15 2 9-15 2-16 4-2 2 2 12 4 22h11l15-3h7l2 4 1 11 3 12 1 6h13l11-2 1-1 9-1 2-4-5-30 1-3 8-2 18-3 5-3-3-20-2-11h-2v-4l-16 2-2 1-14 1-2-6-4-23-2-5z" fill="#0101B1"/>
<path transform="translate(400,666)" d="m0 0 10 1 8 3 4 2 6 9 1 5v11l-1 7h-2v2h-2v2l-4 4h-2v2l-12 3h-8l-10-5v-2h-2v-2h-2l-4-7-1-13 2-8 6-8h3v-2l7-3z" fill="#8C93E5"/>
<path transform="translate(784,1689)" d="m0 0h1l1 14-1 9-70 70-4 5-8 7-2 1v-23z" fill="#DEE3E3"/>
<path transform="translate(1399,1599)" d="m0 0h53v37h36v54h-36v37h-53l-1-3v-34h-38v-54h39l-1-2v-34zm7 3-4 1v37h-38v2h-2v7l1 1v27l-1 7 2 2h38v38h46l1-1v-30l1-1v-6h34v-46h-34l-1-3-1-35z" fill="#010107"/>
<path transform="translate(815,1202)" d="m0 0h12l-1 11-2 16v33l3 15 5 12 6 10 7 7 12 7 9 4 1 7-2 3-5 1-11-4-11-7-7-6-9-12-6-13-4-14-2-20v-14l3-27z" fill="#D9DEE0"/>
<path transform="translate(1594,831)" d="m0 0h8l16 4 12 7 10 8 10 10 10-11 14-10 11-5 7-2h18l10 3 9 6 5 6 2 6v14l-4 13-10 19-10 13-9 10-15 15-15 11-16 8-9 2-16-7-11-7-13-11-8-7-3-3v-2l-4-2-11-14-9-14-7-15-3-12v-9l3-9 6-7 12-6zm-2 3v2h-8v2h-4v2h-4v2h-2v2h-2v2h-2v2h-2l-2 8v8h2v8h2v6h2l1 5 1 3h2v4h2v4h2v2h2v6l2 3 4 1 2 4h2v2h2l2 4 7 8 8 7 3 1v2h2v2h2v2l6 2v2h2v2l7 3 9 5h4v2h8v-2l6-1 4-1v-2l6-2v-2l6-2v-2l8-4v-2h2v-2h2v-2h2v-2l4-2 8-8v-2h2v-2h2v-2h2v-2h2v-2h2l1-3 5-3 1-3-1-3h2l4-8v-2h2v-4h2l2-6v-6h2v-20h-2l-2-6-10-6h-4l-1-2h-24l-11 5-6 3v2l-6 2v2h-2v2h-2v2h-2v2h-2v2h-2v2h-2v2h-2v2h-2v2h-2l-4-8h-2v-2h-2v-2h-2v-2h-2v-2l-6-2v-2h-2v-2h-4v-2l-8-4h-4v-2l-9-1-1-1z" fill="#010106"/>
<path transform="translate(1043,1146)" d="m0 0h8l7 3 4 5 1 3v7l-4 10-6 7-9 6-11 4h-8l-7-3-5-6v-11l5-10 8-8 12-6z" fill="#DDE3E3"/>
<path transform="translate(790,1428)" d="m0 0 10 4 9 5 7 3v2l5 1 9 5 10 4v2l8 2 3 3 7 3v2l5 1 8 4 3 2 6 1v3l7 2 17 9v2l7 1 1 3 6 1 10 5v2l5 1 3 1v2l4 1 12 5v2l6 2 16 8 21 7h17l12-3 12-6v-2h2l2-6 4-4 6-11 2-3h2v-2h2v-2l4-2h9l12 6 7 4v2l4 2v2l4 1 7 8 5 5-1-7-3-5-2-7-4-12h2l10 19 7 15 3 3-4 1-3-1v2l-9-2v-4l-4-1v-3h-2v-2h-2l-2-3v-3l-4-1-2-1v-5l-4 1v-2h-4v-2h-2v-2h-2v-2h-8v-2l-8 2-6 4h-2l-2 7h-2v7l-1 2-6 2-1 4h-2l-2 6h-2v2h-10v2h-8v2l-16 1-14-1v-2h-4v-2l-12-2-4-2-2-3-4-1v-2h-6l-4-2v-2h-2v-2h-4v-2h-8v-2h-2v-4l-12-2v-2h-2v-2h-2v-2h-2v-2l-5 2-4-1-3-1-2-3v-3l-6-1v-2l-8-1v-2h-2v-2h-2v-2h-7l-3-2v-2h-2v-2h-4l-2-3-10-1v-2h-2v-2h-2v-2l-6-1-4-4-4-1v-2l-10-1-2-1v-2h-2v-2h-2v-2h-7l-1-4-9-2-3-2-11-1v3l-2 2-3 6h-2v8l-2 2 2 2v4l-4-2-2-4z" fill="#8F96E2"/>
<path transform="translate(1521,477)" d="m0 0 4 1 18 37-1 4-25 13-3 2-4-1-5-11v-3l13-6 1-3-13 6h-4l-4-8v-3l13-6 1-3-10 4-4 2h-3l-4-9v-2l23-11z" fill="#DBE0E1"/>
<path transform="translate(1208,200)" d="m0 0 12 1 108 36 11 6 8 9 5 12v16l-5 12-9 10-10 5-10 2-11-1-108-36-10-5-8-8-5-9-2-9v-8l2-9 5-9 4-5 11-7zm-4 4-10 4-6 4v2h-2v2h-2l-5 11-1 3v16h2v6h2l2 6h2v2h2v2h2v2h4v2l10 4 11 3 7 3h4v2l8 2h4v2l12 3 14 5h4v2l8 2h4v2h6l1 2h5v2l8 2h4v2h8v2h6l1-1 9-1v-2l4-1 5-4 3-1v-2h2v-2h2v-4h2v-6h2v-20l-2-6h-2v-2h-2l-2-4-9-8h-3v-2l-8-2h-4v-2l-7-1-7-3-10-3-6-1v-2h-6v-2l-7-1-5-1v-2l-12-3-14-5h-4v-2h-6v-2h-6l-1-2h-5v-2z" fill="#010105"/>
<path transform="translate(920,1591)" d="m0 0 13 2 18 2h27l-2 5-7 11-11 11-14 7-11 1-6-2-4-11-2-13z" fill="#636FE6"/>
<path transform="translate(965,1202)" d="m0 0h12l2 12 1 19-1 23-3 18-6 18-8 13-6 7-7 1-3-2-1-6 8-10 7-14 4-14 2-15v-32z" fill="#D9DEE0"/>
<path transform="translate(1687,862)" d="m0 0h2l3 10 5 31 1 2 6-6 13-1 2 2-4 4h-10l-2 4-6 8h-3l-2-8-5-30-2 2-3 9-3 8-3 7-28 1-2 3h-2l-2 6-9 14-2-2-7-30-3-12h-2l-9 18h-2v2l-2 1h-16l-1 2-6-3-1-3 2-1 20-1 16-28h4v9h2l7 30v3l5-1 1-4 5-8 27-1 1-3h2l1-4 6-16 5-12z" fill="#8089E2"/>
<path transform="translate(312,871)" d="m0 0 2 2 4 13 2 6h2v4h2l2 3v3h2v2h2v2h2v2h2v2h2v2h2v2h2v2l6 2v2l6 2v2h4v2l8 2v2h5l8 3 9 1 1 1h22l1-1 8-1 8-3 6-2-2 4h-2v2l-6 2v2h-4v2l-6 2h-6v2h-31l-8-3-11-3v-2h-4v-2h-4v-2l-6-2v-2h-2v-2l-4-1-4-3v-2h-2v-2h-2l-2-6h-2v-2h-2l-2-6h-2v-4h-2v-4h-2l-1-7-1-1z" fill="#0101B1"/>
<path transform="translate(1406,1155)" d="m0 0 1 4-17 48-11 28-12 30-11 26-12 27-16 34-11 21-1-4 1-4-1-3h2v-2l2-1 1-5 1-2h2v-4l1-2h2l2-12 2-1 1-5 3-2 2-10h2l-1-4h6v-9l3-7 2-8 3-4h2v-13l4-1v-2h2l1-8h2l3-10h2l1-9 1-5h2l2-4h2l1-7 3-12 2-3h2v-3h2l1-7h3l2-16h2v-4h2l2-8 2-1 2-12 4-1z" fill="#9BA1DE"/>
<path transform="translate(1296,546)" d="m0 0h16l8 4 8 6 1 3 3 3 4 10-1 12-3 9-2 3h-2l-1 4-9 6-5 2h-17l-9-4-7-5v-3h-2l-4-8-2-10v-6l5-12 2-1 1-3 11-8zm0 5-11 7-3 4v2h-2l-3 12 1 10 3 6 10 9 6 3h14l7-4v-2l4-1 6-6 2-5 1-12-3-10-7-8-9-5z" fill="#0101B1"/>
<path transform="translate(709,1440)" d="m0 0 14 1 15 4 6 2v1l-40 2-20 3-7 3-11 3-16 8-8 6h-2v3h-2v2h-2l-2 10h-2l2 14 4 8v2h2l3 5 1 3h2l2 3v3l4 2 8 6v2l-6-1-6-3v-2h-2l-4-6v-4h-2v-4h-4v-2h-2l-1-9-3-1v-22l2-4h2l1-4 1-2h4v-2h2v-2h2v-2h2v-2l6-2v-2l10-2v-2l10-2v-2l8-2 4-2-3-4 5-2z" fill="#8F96E0"/>
<path transform="translate(1041,408)" d="m0 0 3 1-1 5-11 12-9 8-13 8-16 7-13 3-8 1-46 1-12 3-11 6-5 4-5 8-3 8-4-2 3-10 6-8 9-7 11-5 15-3h33l20-2 16-5 15-8 13-10 9-10z" fill="#CACFD5"/>
<path transform="translate(802,168)" d="m0 0h19l1 2v36l-1 2h-19z" fill="#0101B1"/>
<path transform="translate(825,168)" d="m0 0h15l3 2 1 6v30l-1 2h-19v-39z" fill="#0101B1"/>
<path transform="translate(1282,1440)" d="m0 0 1 2-7 29-4 18-1 2h-30l6-8h2v-2h2l2-4 9-10 12-16z" fill="#4352E3"/>
<path transform="translate(780,168)" d="m0 0h18v40h-18z" fill="#0101B1"/>
<path transform="translate(1416,987)" d="m0 0h11l5 2v2l4 1 1 5v9l-3 6h-2v2l-4 2h-12l-8-7v-17l5-3z" fill="#0101B1"/>
<path transform="translate(614,1701)" d="m0 0h3l-1 3-10 7-9 9-6 10 12-6 12-9 12-11 4-1-1 6-11 27 10-3 10-6 5-8 5-1-2 5-2 2-1 4 10-5 8-9 6-9 2 2 1 16 14-1 14-3v3l-16 4h-12l-3-1v-13h-2l-2 5-8 9-10 5h-4l-2-2-9 6-9 3h-7l3-10 7-18-13 11-14 9-11 4-1-3 6-11 11-12z" fill="#010109"/>
<path transform="translate(332,1104)" d="m0 0h20v2l5 1 7 6 2 3v4h2v20l-7 9-6 5h-3v2h-18l-9-5-6-7-3-6v-18l7-9zm4 4-8 4v2h-2l-2 3v3l-3 1-1 3v14l6 8h2v2l8 4h12l9-5 6-8 1-3v-14l-1-2h-2l-2-5-9-7z" fill="#0101B1"/>
<path transform="translate(400,666)" d="m0 0 10 1 8 3 4 2 6 9 1 5v11l-1 7h-2v2h-2v2l-4 4h-2v2l-12 3h-8l-10-5v-2h-2v-2h-2l-4-7-1-13 2-8 6-8h3v-2l7-3zm0 5-6 2-6 5-4 7v14l6 8 8 5h11l8-4 6-7 1-2v-14l-6-9-5-4z" fill="#0101B1"/>
<path transform="translate(1069,718)" d="m0 0 1 4-3 12-3 7h-2l-1 4-8 7-12 5-4 1h-16l-13-4-4-3h9l16-3 13-5 11-7 3-1v-2l10-10z" fill="#626EE6"/>
<path transform="translate(652,1280)" d="m0 0h4v16h-2l-1 16-5 32-5 43-2 14-1 23v24l12-3h6l3 2 8-2 4 1-1 2-6 2h-10v-2l-12 3-5 1-4-4-1-2v-22h2v-16h2v-16h2v-20l1-2 3-26h2v-8l1-2 1-22h2l1-7z" fill="#9197DE"/>
<path transform="translate(719,1568)" d="m0 0h6l5 3 6 1v2l8 1 34 8 14 2 13 2 43 3h32l36-2v4l-4 1-16-1v2h-64v-2h-16v-2h-19l-1-1-7-1-1-1-16-1-10-2v-2l-16-2-18-5h-6l-2-2z" fill="#9096E0"/>
<path transform="translate(1063,711)" d="m0 0h4l-2 5-7 9-5 5-7 6-14 7-11 3-7 1h-12l2-4 7-4 8-3 15-1 3-6 9-10 8-5z" fill="#626EE6"/>
<path transform="translate(1098,1487)" d="m0 0h2l10 19 7 15 3 3-4 1-3-1v2l-9-2v-4l-4-1v-3h-2v-2h-2l-2-3v-3l-4-1-2-1v-5l-4 1v-2h-4v-2h-2v-2h-2v-2h-8v-2l-8 2-6 4h-2l-2 7h-2v7l-1 2-6 2-1 4h-2l-2 6h-2v2h-12l4-3 10-5v-2h2l2-6 4-4 6-11 2-3h2v-2h2v-2l4-2h9l12 6 7 4v2l4 2v2l4 1 7 8 5 5-1-7-3-5-2-7z" fill="#8F96E0"/>
<path transform="translate(679,1149)" d="m0 0 2 1-3 20-6 30-6 36-3 12-4 26-1 6h-2v-10h2v-16l4-17 1-3 1-18h2v-15l-3-1-1 7-2 7h-2v2h-2l3-12 15-42z" fill="#8C93DF"/>
<path transform="translate(1025,395)" d="m0 0 4 1-2 4-8 10-8 8-16 8-14 3-40 1-16 2-10 3-6 3-4-2 5-5 17-5 9-1 40-1 17-3 14-7 10-9z" fill="#CED3D9"/>
<path transform="translate(911,505)" d="m0 0 4 1-2 5-1 8-1 1-1 8h-2v16h-4v32h2l2 6v10l19-1 1-1h6v-2l6 1 4 1 1-2 3 3 3 2-19 1-18 4-7 3-4-1-2-26v-30l3-17 5-17z" fill="#8B878C"/>
<path transform="translate(916,1597)" d="m0 0h1l3 20 3 12h-65l-40-3-37-5-10-2v-1l11-1 4 2h3l1-2 4 1h6v3l5 1v-2h9l2 1 15 1 7 2v2h2l1-2 1 1 2-1v2l4-2h7 3 6v2h20l4-1 16 1v-1h10l6 1v-4h-4l-1-2v-7-4-7z" fill="#8A92E5"/>
<path transform="translate(1687,862)" d="m0 0h2l3 10 5 31 1 2 6-6 13-1 2 2-4 4h-10l-2 4-6 8h-3l-2-8-5-30-2 2-3 9-3 8-3 7h-10v-1l9-1 1-6h-2l1-4 6-16 5-12z" fill="#A3ABDE"/>
<path transform="translate(1072,558)" d="m0 0 11 1 10 4 9 6 1 6-5 2-11-7-6-2-9-1-12 3-11 7-5-2 1-6 11-7 8-3z" fill="#010108"/>
<path transform="translate(1216,1048)" d="m0 0 2 2-14 8-14 11-1 5-3-1-1-4-4 1v2h-3l-1 6-3 4h-2v2h-2v2h-2l-1 9-10 15-10 18-3 6-1-3 3-10 5-9 3-8 4-8h2l1-5h2l1-5 3-3 1-3 4-4h2v-4l5-3 11-9 6-2v-2h4v-2l8-3z" fill="#8C93E2"/>
<path transform="translate(941,568)" d="m0 0h11l10 4 9 8v5l-2 2-5-1-7-6-7-3h-8l-9 4-8 6-5-2v-5l10-8 6-3z" fill="#01010B"/>
<path transform="translate(683,1773)" d="m0 0h14l1 3v21l-1 1h-12l-5-6-2-6 1-8z" fill="#D7DCE1"/>
<path transform="translate(791,1216)" d="m0 0 2 3 3 9 3 15 3 11 4 12v4h3l4 16 3 10h-5l-3-9v-9h-2l-4-6v-7l-3-1-1 1-1 7 1 1v22l-2-1-4-61z" fill="#6672E6"/>
<path transform="translate(1276,1094)" d="m0 0h4v2l-4 2v2h4v8l-10 4h-6l-1 4-9 2v2l-5 1-1 5h-2v2h-2l-2 4-4 10-4 4v10l2 4h2v2h6l4 2v4h-6l-6-4v-2h-2v-2h-2v-20l5-9 9-10 9-7h3v-2l7-4 7-3 4-1v-2l-20-2 4-2z" fill="#8E95E1"/>
<path transform="translate(774,170)" d="m0 0h2l1 26 1 7-2 5h-12v-26l4-8h2v-2z" fill="#0101B1"/>
<path transform="translate(1406,1155)" d="m0 0 1 4-17 48-11 28-6 15-3 1-1-8 1-7h2l2-4h2l1-7 3-12 2-3h2v-3h2l1-7h3l2-16h2v-4h2l2-8 2-1 2-12 4-1z" fill="#9FA5DD"/>
<path transform="translate(1274,980)" d="m0 0 7 4 10 9 8 7 15 15 9 11 12 11 13 10 11 8v1h-6l-1-4-4-2-1-1-9-1-1-5-3-1v-3l-6-2-1-3-2-1v-2l-5-1v-2h-2l-1-4-4-2v-4h-5v-3l-3 1-1-6h-2v-2h-5l1-3-2-5h-6l-2-2v-5l-8-3 1-3-5-1v-2l-2-1z" fill="#8D94E3"/>
<path transform="translate(620,1364)" d="m0 0 2 4v8h-2l1 16v14l-1 2h-6l2 9-1 17-1 6-1 2 1 6-3 3h2l-2 6h-2v-15l4-38 5-35z" fill="#8B92E6"/>
<path transform="translate(488,1773)" d="m0 0h13l-1 13 2 8 1 5h-10l-7-6-2-5v-8z" fill="#D8DEDF"/>
<path transform="translate(546,481)" d="m0 0h16l8 3 2 2v3l-6-1-6-2h-9l-9 2-18 6-5 2-7 2-11 4h-5l-1-3 5-3 39-13z" fill="#AFB7E5"/>
<path transform="translate(1282,1440)" d="m0 0 1 2-7 29-4 18-1 2h-30l6-8h2v-2h2l2-4 9-10 12-16zm-11 20-1 2-2-1v5l-4 1-2 4-3 3 1 4-5 2v2l-5 1-2 1-1 5 1 1h20l3-12 3-6v-8l-1-4z" fill="#6570E6"/>
<path transform="translate(1161,1571)" d="m0 0h2v122h-1l-1-54-7 4-10 5-3-1 3-1v-2l8-2v-4l7-3 1-51h1l1-6h-2l-1-1-3 4v2l-4 1-1 2-2-1 2-4 4-4h2v-2h2z" fill="#636FE7"/>
<path transform="translate(349,832)" d="m0 0h9l-1 3-12 5-5 2-2 4h-2l-2 7-3 7v11l4 11 1 4h2l2 3v3h-5l-7-12-2-6v-18l6-12h2v-2h2v-2h2v-2l9-5z" fill="#9FA6E3"/>
<path transform="translate(1416,992)" d="m0 0h13l3 4v10l-5 5-2 1h-6l-6-4-1-2v-9z" fill="#8991E5"/>
<path transform="translate(480,1279)" d="m0 0 4 2-12 3-14 2-2 1-1 6 4 19 1 10-2 2-9 1-7 2-5 1h-13l-3-16-1-2-1-11-2-4h-7l-10 1v-2h6v-2h16l1 19 1 1 1 9 1 3 4 1 2 1h6v-2h10l1-3 9 1-2-5-2-13v-8h-2v-7l6-7 5 1 1-1 10-1z" fill="#515EE4"/>
<path transform="translate(638,1392)" d="m0 0h2v56l12-3h6l3 2 8-2 4 1-1 2-6 2h-10v-2l-12 3-5 1-4-4-1-2v-22h2v-16h2z" fill="#8F96E0"/>
<path transform="translate(989,930)" d="m0 0 2 4 1 6-2 4h-2v16h-2v32h2v4h2v2h2v-2h2v-2h6v2h7l-3 3-13 4-5-2-2-5-1-8v-23l3-26z" fill="#8B868D"/>
<path transform="translate(512,1773)" d="m0 0h10l-1 14 3 9-1 3-9-1-6-7-1-3v-8l3-5z" fill="#D7DCDF"/>
<path transform="translate(532,1773)" d="m0 0h11l-1 6v10l3 9h-10l-6-7-1-3v-9z" fill="#D9DEDE"/>
<path transform="translate(1621,870)" d="m0 0 3 1v5l-1-2h-3l-2 6 5 1 3 12v7l-2-4-3-12h-2l-9 18h-2v2l-2 1h-16l-1 2-6-3-1-3 2-1 20-1 16-28z" fill="#7A83E4"/>
<path transform="translate(959,602)" d="m0 0 4 1 3 3 1 4v12l-3 7-4 2-5-5-1-2v-15l3-6z" fill="#01011C"/>
<path transform="translate(1065,602)" d="m0 0 5 1 3 7v12l-3 7-4 2-4-4-2-5v-12l3-6z" fill="#010111"/>
<path transform="translate(897,1320)" d="m0 0 15 1 10 1 7 1 6 2h9l20 4 17 4 11 4h7l5-9 4-1-2 5h-2v4h-2v2h-2v2l-4 1-11-3-9-4-5-1-17-1-10-2v-2h-11l-4-2-1 2h-5l-1-1-10-2v-2l-15-1z" fill="#7780E0"/>
<path transform="translate(336,1108)" d="m0 0h14l2 2h-16v2l-5 3-4 3-1 6h-2v4h-2v10h4l3 7 7 3v1l8 1v-2h8v-2l4-4 2-3h2l1-3 1-16 2 2v14l-4 7-4 5-8 4h-12l-8-4v-2h-2l-6-8v-14l2-4h2l1-4 1-2h2v-2z" fill="#5663E5"/>
<path transform="translate(1201,608)" d="m0 0 3 1 5 7 3 11v20l-4 16-9 21-3-1-1-2v-7l1-2h6v-4h2v-8h2v-20h4v-16h-2l-1-3-3-1v-2h-2z" fill="#8C878B"/>
<path transform="translate(1072,832)" d="m0 0h9l-4 3-13 4-11 2h-25l-14-3 4-4h6l4 4v-2l18-1 10 1v-2h16z" fill="#8C878B"/>
<path transform="translate(1338,1312)" d="m0 0h6l-2 6-2 9-20 41-4 5v-7-4h2v-2l2-1 1-5 1-2h2v-4l1-2h2l2-12 2-1 1-5 3-2 2-10h2z" fill="#8D95E4"/>
<path transform="translate(1e3 605)" d="m0 0h13l8 3v21h-2v-19l-3 1-2-2h-11v15l-3 1 2 10 1 1v10h-8l-1 2-2-2 5-16z" fill="#898592"/>
<path transform="translate(1e3 586)" d="m0 0h2l1 4v7l11-2 11 1 4-2 10-1 3 1 1 3-19 7-10-2-14-1z" fill="#8D888A"/>
<path transform="translate(709,1440)" d="m0 0 14 1 15 4 6 2v1h-35l-5-1-5 1h-2v-3h-5l4-2-3-2z" fill="#8C93E3"/>
<path transform="translate(401,842)" d="m0 0h3l-1 4-1 2h-2l-1 4-1 2h-2l-1 4-1 2h-2v2h-2l-1 4-1 2h-2l-1 4-1 2h-2v2h-2l-1 4-1 2h-2l-1 4-1 2h-2v2h-2l-1 4-1 2h-2l-2 6-4 2v2h-2v-4h2l1-4 1-2h2l1-4 1-2h2l2-5 2-3h2v-2h2v-4h2l1-4 3-4h2l1-4 1-2h2v-2h2v-4h2v-2h2l2-6h2v-2h2z" fill="#010103"/>
<path transform="translate(908,655)" d="m0 0 5 5 5 4 13 3 14 2v1l-19 1-8-3h-6v48l-2-4-2-16z" fill="#8C878C"/>
<path transform="translate(1030,1390)" d="m0 0 7 1 19 6 1 2-4 1-3-1v-2h-7v3l4 2 3 2v2h2l1-2h3v4l2 1 5 7 2 5 7 8 2 5h2l2 6h2l1 3-3 1-8-11-10-13-11-12-12-12-7-5z" fill="#8890E5"/>
<path transform="translate(864,1633)" d="m0 0h80v3h-8l-3 1h-65l-4-1z" fill="#6873E6"/>
<path transform="translate(590,1773)" d="m0 0h9l-1 5v12l3 9-8-1-5-5-2-4v-10z" fill="#D4DADE"/>
<path transform="translate(553,1773)" d="m0 0h9l-1 4v14l3 7h-8l-5-5-2-4v-10z" fill="#D4DADD"/>
<path transform="translate(664,1773)" d="m0 0h9l-1 5v12l3 8h-8l-5-5-2-4v-10z" fill="#D5DADD"/>
<path transform="translate(627,1773)" d="m0 0h9l-1 5v12l3 8-5 1-5-3-4-5-1-2v-10z" fill="#D5DADD"/>
<path transform="translate(646,1773)" d="m0 0h9l-2 7v8l3 10-4 1-5-2-4-5-2-6 1-8z" fill="#D6DBDE"/>
<path transform="translate(636,1472)" d="m0 0h4v4h-2v2h-2l-2 10h-2l2 14 4 8v2h2l3 5 1 3h2l2 3v3l4 2 8 6v2l-6-1-6-3v-2h-2l-4-6v-4h-2v-4h-4v-2h-2l-1-9-3-1v-22l2-4h2l1-4z" fill="#8F96E4"/>
<path transform="translate(571,1773)" d="m0 0h9l-1 6v9l3 10h-8l-6-7-1-10z" fill="#D5DBDC"/>
<path transform="translate(958,1674)" d="m0 0h6l-2 2-32 7-2 1h-61l-11-2-8-1v-1h16l1 1 63 1v-3l10-3 16-1z" fill="#9096E1"/>
<path transform="translate(609,1773)" d="m0 0h8l-1 7v8l3 10h-8l-5-6-2-6 1-8z" fill="#D6DBDD"/>
<path transform="translate(1282,1200)" d="m0 0h3l1 6h2v10h2v36h-2v12h-2v14h-2v2h-4v-6l3-10 4-19v-22l-2-10-3-9z" fill="#8F96E2"/>
<path transform="translate(847,174)" d="m0 0 5 4v4h2v26h-8v-32z" fill="#0202B1"/>
<path transform="translate(782,1377)" d="m0 0h2v5l-6 2v2h-2v3l-8 3h-4l-2 8h-2v2l-7 2-9 3 2-4 9-8 13-10z" fill="#8A878F"/>
<path transform="translate(790,1626)" d="m0 0 19 2 9 1v1h-24v18h2l1 6v9l1 7 18 4 6 1 18 1 4 4-9-1-11-1-14-3-10-2-4-1-2-11-4-30z" fill="#6772E6"/>
<path transform="translate(744,1440)" d="m0 0 10 3 7 2 7 3 1-3h9v-4l3 1-7 17-6-2-15-9-11-5 2-1z" fill="#8B878D"/>
<path transform="translate(1199,1441)" d="m0 0h1v5l-5 2h-3v2h-2v2l-12 2h-30l-6-2v-2h-2l1-4h3v2l8 2h20l14-3z" fill="#9298D9"/>
<path transform="translate(971,476)" d="m0 0h5v4h-48v6l-1 2h-3v2l-3 1-1 3h-2v2l-3-1 9-17 1-1h29z" fill="#888595"/>
<path transform="translate(1135,1596)" d="m0 0 3 1-1 3-2 1v2l-4 3h-2v2h-2v2h-2l-1 2v-2l-5 3-15-1v-2l-16-2v2h-4v-2l-4-1-2-1v-2h-6v-3l8 1 36 8 4-1 13-12z" fill="#6975E6"/>
<path transform="translate(776,1617)" d="m0 0 10 1 3 1 1-2 4 1h6v3l5 1v-2h9l2 1 15 1 7 2 1 3h-11l-34-4-23-4v-1z" fill="#8F95E2"/>
<path transform="translate(1073,696)" d="m0 0 5 1 2 3v19l-4 1v16h-4v9l-3 3-2 4h-7l6-7 5-10 2-10 1-17 2-5-1-4z" fill="#898692"/>
<path transform="translate(714,794)" d="m0 0 8 1 2 1 1 3v7l-5 5h-6l-5-5-1-6 4-5z" fill="#0101B1"/>
<path transform="translate(1511,446)" d="m0 0 4 1-9 7-15 7-16 5-3-1 9-7 17-8z" fill="#CBD0DA"/>
<path transform="translate(633,1296)" d="m0 0h2l1 6v6l-2 1v-3h-2v13l-1 4 1 4h-2v2h-2l2 7h-2l4 8h-8v14l-3 4-1-5 7-37z" fill="#8B93E5"/>
<path transform="translate(820,1344)" d="m0 0h20v1l18 2 13 1v1l9 1v2h10v2l20-1 4 2 2 2-9 1-45-7-42-6z" fill="#6571E6"/>
<path transform="translate(469,1773)" d="m0 0h9l-1 14 3 9-1 3-10-1z" fill="#D2D7D9"/>
<path transform="translate(1160,1495)" d="m0 0 2 1 1 4v65l-6 2 2-3z" fill="#848CE5"/>
<path transform="translate(800,1385)" d="m0 0 3 1-8 21-10 25-2-2 1-11 3-8 1-3h2v-7l4-1v-7l4-7z" fill="#8B878C"/>
<path transform="translate(1249,1118)" d="m0 0m-1 1 1 2-1 5h-2v2h-2l-2 4-4 10-4 4v10l2 4h2v2h6l4 2v4h-6l-6-4v-2h-2v-2h-2v-20l5-9 9-10z" fill="#9096E1"/>
<path transform="translate(1241,1479)" d="m0 0 2 2-2 4-6 6-74 1 1-4h5l6 2v-2h57l3 1 4-4 2-4h2z" fill="#8D94E6"/>
<path transform="translate(790,1428)" d="m0 0 10 4 9 5 3 3h-7l-3-2-11-1v3l-2 2-3 6h-2v8l-2 2 2 2v4l-4-2-2-4z" fill="#8E95DE"/>
<path transform="translate(993,587)" d="m0 0h7l1 1v14l-6 2-15-6v-2l12-3v-5z" fill="#898591"/>
<path transform="translate(946,576)" d="m0 0 7 1 8 5 4 4 5-1 4-2 2 3-2 6-8 3-5-2 1-3-2-1-1-3h-5v-2h-4v-2h-2v-2l-2-1z" fill="#8C878C"/>
<path transform="translate(1687,862)" d="m0 0h2l3 10v8h-2l-1-11-2-1-1 5 2 1-1 4-2 2-3 9-3 8-3 7h-10v-1l9-1 1-6h-2l1-4 6-16 5-12z" fill="#8F98E5"/>
<path transform="translate(1050,960)" d="m0 0h7l1 3 2 1-13 10-14 9-8 5-2-2 2-4 4-2h3l1-2h3v-2h4l1-5 5-2 2-4z" fill="#8C888D"/>
<path transform="translate(991,661)" d="m0 0h1v11h-2v11l1 9h16l1 2-11 3-8-1-3-4-1-3v-11l5-15z" fill="#8A8690"/>
<path transform="translate(996,853)" d="m0 0 3 3 6 11 11 12v1h-7l-1-4h-2v-2l-7 1-1 14-2 2z" fill="#8B8892"/>
<path transform="translate(632,1568)" d="m0 0h7v2l5 1 1 2 2-1v2h3v3l10 2v2l3 1 3 2 5 1 3 3 4 2 2-1v3l11 1 4 2 6 4-3 1-24-9-29-14-13-8z" fill="#7F88E6"/>
<path transform="translate(979,1571)" d="m0 0 20 7 8 3-1 2-14 5-16 3v-3h2v-4h4v2l5-2h9v-4l-4-1-8-1-1-3-7-1z" fill="#8B878E"/>
<path transform="translate(1278,1280)" d="m0 0h2v8h-2v6h-2l1 4-2 10-1 4h-2v9l-3 7-6 2 2-8 2-4 1-6h2v-6l4-10z" fill="#9097DE"/>
<path transform="translate(1262,1331)" d="m0 0h2v9h-2l-1 5-1 9h-2v6h-2v16h-8l1-6 2-4 1-6h2v-6h2l1-6z" fill="#8F96E2"/>
<path transform="translate(928,1593)" d="m0 0 12 1 11 1h27l-2 5-6 9-2 1-2-2 4-4 1-3-3-2-22-1-3 2-13-2 3-2-5-2z" fill="#8A91E6"/>
<path transform="translate(446,1218)" d="m0 0 2 2 2 16h2l1 5 5 1v-2l12-2h10v-2h4v2h2l2 4 2 13v11l-2-2-3-17-2-7-18 2-7 2h-6l-3-6-3-15z" fill="#5562E5"/>
<path transform="translate(530,486)" d="m0 0 4 1-2 2 2 2-14 4-8 3-11 4h-5l-1-3 5-3 24-8z" fill="#838CE5"/>
<path transform="translate(1022,1640)" d="m0 0h24l9 2 7 2v2h2v2l-5-1-5-2-14-3h-16v2l-10 4v2h-2v2l-18 10h-2v-2l7-4h3v-2l7-4 3-1 1-5 5-3z" fill="#7680E6"/>
<path transform="translate(1158,703)" d="m0 0h3l-1 14-6 25-2 6h-3l1-4h-2l1-5 2-3 1-9h1l1-7h2v-6h2l-1-3v-7z" fill="#8B878D"/>
<path transform="translate(940,560)" d="m0 0 4 1v3h16v7l-8-2h-11l-9 3-4 2v-6h6v-2h2v-2h2v-2h2z" fill="#8C878A"/>
<path transform="translate(1095,592)" d="m0 0h15l4 4 6-1v3h2v-2h4l2-4 2 14-6-2-14-6-18-4z" fill="#8A8792"/>
<path transform="translate(398,664)" d="m0 0h10v2l6 1-4 1-10-1-10 3v2l-5 3-4 7-1 13 2 8 2 2-1 3-1-3-4-1-1-16 3-14h2v-2l4-2v-2l8-3z" fill="#5361E5"/>
<path transform="translate(1182,605)" d="m0 0h2l1 3h-3l-2 8h-2v2l-10 3v7l-4 1-1-2-2 1 1-5 8-10 8-6z" fill="#8B878E"/>
<path transform="translate(406,1292)" d="m0 0h16l1 19 1 1 1 9 1 3 4 1 2 1h6v-2h8l-4 1v2l-5 1h-13l-3-16-1-2-1-11-2-4h-7l-10 1v-2h6z" fill="#5360E5"/>
<path transform="translate(1011,1584)" d="m0 0 7 1 14 4v1h-10v-2l-11-1-11 5-11 3-3 1v2l-4 2 1 5-3 5-4 2-3 3-1-2 7-11 5-9 12-3 13-5z" fill="#6671E6"/>
<path transform="translate(710,792)" d="m0 0h12v2h4v4l2 1-1 9-3 4h-2v2h-8v-2h-4v-2h-2v-4h-2v-8l2-4h2zm4 2-5 5-1 5 4 6 2 1h6l5-5v-7l-1-3-6-2z" fill="#5562E5"/>
<path transform="translate(919,406)" d="m0 0 3 1-7 4-9 3v2l-10 1v2l-12 5h-4v2l-10 3-6 3-10 4-3-1 22-11 38-14z" fill="#E2E8E7"/>
<path transform="translate(996,753)" d="m0 0 4 1 10 5 6 2 7 1-1 4h-16l-6-2v-2h-2v-4h-2z" fill="#8C878C"/>
<path transform="translate(1218,1049)" d="m0 0 3 1-1 4-11 6-10 7-7 6h-4l1-4 12-10 13-8z" fill="#010114"/>
<path transform="translate(1244,224)" d="m0 0h2v6h-2l-1 6-1 4h-2l-1 6-3 8h-2l-1 6-1 4h-2v4h-4v-4h2v-4h2v-4h2v-6h2v-4h2v-6h2v-4h2v-5l2-5h2z" fill="#010103"/>
<path transform="translate(1636,1556)" d="m0 0h1l1 122 1 12 3 3h-6z" fill="#8B8C86"/>
<path transform="translate(1302,244)" d="m0 0h2v5h-1l-1 5h-2l-1 6-1 4h-2v4h-2v5l-2 5h-2l-1 6-1 4h-4v-4h2v-5l5-11 1-4h2v-4h2v-4h2v-6h2v-4h2z" fill="#010103"/>
<path transform="translate(613,1413)" d="m0 0 3 3-1 18-1 6-1 2 1 6-3 3h2l-2 6h-2v-15l3-28z" fill="#8991E6"/>
<path transform="translate(1230,962)" d="m0 0h3l-1 4-6 1h-12l1 3 4 4 1 2h2v2h2v2h2v2h2v2l4 1v6l-6-5v-2l-4-2-12-11-1-3 1-4 18-1z" fill="#8D94E0"/>
<path transform="translate(1230,1410)" d="m0 0h2v4h-2v2h-2v4h-2v2h-2v8h-2v2l-6 2h-4v2h-4v2h-2v2l-4-1 6-5h2v-2h2v-2l3-1 3-5h2v-2h2l2-4 4-6h2z" fill="#8F96E2"/>
<path transform="translate(671,500)" d="m0 0 3 1-10 5-12 3-6 3h-6v2l-11 4h-5v2l-6 2h-4l-1-4v-9h1l2 8 11-1 18-8z" fill="#E2E8E7"/>
<path transform="translate(731,1418)" d="m0 0h1l1 8-1 2h-2v2h-4v6h8l1 3-2 1-17-3 2-5z" fill="#888595"/>
<path transform="translate(644,1344)" d="m0 0h3l-1 16-3 27-2 14h-1v-29l1-2z" fill="#9298D8"/>
<path transform="translate(811,692)" d="m0 0 1 4-4 10-5 13-3 1-14-5-10-4h-5l-3 1v-2l4-2h7l5 3 8 1v2h4v2h4l1-1 1-3h2v-4h2v-8z" fill="#4D5BE4"/>
<path transform="translate(1029,1583)" d="m0 0 7 1 3 1 7-1 2 3 8 2h5l1 3 10 1h6l1 2h6l3 3v2l-15-3-30-8-14-4z" fill="#8A92E4"/>
<path transform="translate(1161,694)" d="m0 0h7v2h17l1 4-5 2h-11l-13-3 2-1z" fill="#8E898D"/>
<path transform="translate(1015,694)" d="m0 0h1v8h-2v2h-26l-2-1v-5l5 2h8l12-4z" fill="#8C888D"/>
<path transform="translate(1088,480)" d="m0 0 28 8 2 4h-14v-4h-16z" fill="#8C878B"/>
<path transform="translate(1096,1244)" d="m0 0 2 1-7 11-12 19-11 17-2-2v-3h2l-1-5-2-1 5-1 1 2 1-2h2l1-5 3-5h2l2-7h2l1-3 1-4h2v-2h2v-2h2v-4h2z" fill="#717BE6"/>
<path transform="translate(1406,1155)" d="m0 0 1 4-15 42-2-1 2-16h2v-4h2l2-8 2-1 2-12 4-1z" fill="#8A92E3"/>
<path transform="translate(1621,870)" d="m0 0 3 1v5l-1-2h-3l-2 6 5 1 3 12v7l-2-4-3-12h-2l-5 10h-3-3l2-6 6-10z" fill="#7781E5"/>
<path transform="translate(1110,804)" d="m0 0h7l2 2-12 11-14 10-3-1 1-2h3v-4h4v-2l6-2 1-4 2-2 1-4h2z" fill="#8A8791"/>
<path transform="translate(1516,450)" d="m0 0h2l-1 4-9 6-14 7-17 5-4-1v-2l12-3 15-6 11-6z" fill="#C7CBD2"/>
<path transform="translate(1076,946)" d="m0 0h4l-2 4-14 11-3 2-2-1 2-4 2-8 3-2 9-1z" fill="#8A8790"/>
<path transform="translate(921,1549)" d="m0 0 4 2-1 33h2v2h5v3l-10-2z" fill="#8B8790"/>
<path transform="translate(1024,724)" d="m0 0h6l4 3-3 4-17 3-5 1-1-1v-6h16z" fill="#8C878A"/>
<path transform="translate(1124,560)" d="m0 0h6l-1 11-2 21h-3l-1-16z" fill="#8C878B"/>
<path transform="translate(1047,634)" d="m0 0 4 2 10 7 12 6 9 3v2l-3 1-11-3-13-8-7-5z" fill="#010138"/>
<path transform="translate(1039,660)" d="m0 0 5 2 8 4 10 2h26v2l-26 1-1 1h-8l-2-3-9-1v-2h-2z" fill="#898693"/>
<path transform="translate(1072,566)" d="m0 0 12 2 3 2-3 2h-12l-1-1-2 3h-6v-2h-6l3-3z" fill="#8B878D"/>
<path transform="translate(982,634)" d="m0 0 2 1-1 5-7 7-11 5-7 2h-9l1-3 17-4 8-4 5-6z" fill="#010125"/>
<path transform="translate(1144,795)" d="m0 0 2 4-2 13h-2v3l-2 1h-9l7-11z" fill="#8B868D"/>
<path transform="translate(799,1252)" d="m0 0h2l5 14v4h3l4 16 3 10h-5l-3-9-1-12-3-4-2-7z" fill="#707AE6"/>
<path transform="translate(1274,980)" d="m0 0 7 4 10 9 8 7 6 7-3 1h-5l1-3-2-5h-6l-2-2v-5l-8-3 1-3-5-1v-2l-2-1z" fill="#878FE5"/>
<path transform="translate(1118,649)" d="m0 0 1 4 1 3v4l-7 5-3 7h-6l-1-7 6-3 6-7z" fill="#8C888C"/>
<path transform="translate(349,832)" d="m0 0h9l-1 3-12 5-5 2-2 4h-2l-1 2-1-2-3 2 1-4h2v-2h2v-2h2v-2l9-5z" fill="#818AE5"/>
<path transform="translate(713,660)" d="m0 0h1v6h-2v6l-3 6v7l5 1 1-2 1 4h4v2l12 1v3l4 1-1 2-21-8-7-2-2-3 1-6 3-6 2-8z" fill="#5461E5"/>
<path transform="translate(328,1104)" d="m0 0 4 1-10 8-5 7v18l5 9 2 3-4-1-2-5h-2v-2h-2l-1-6 1-18h2v-4h3l1-4 6-2z" fill="#4F5DE4"/>
<path transform="translate(720,736)" d="m0 0h5l7 3 20 7 2 1h7l3-9 2-2v11l-5 3h-7l-10-3-2-1v-2h-6v-2l-12-2v-2h-4z" fill="#515FE4"/>
<path transform="translate(1064,1648)" d="m0 0h6v2l20 4h16l12-1 17-5 4 1h-3v2l-16 4-5 1h-29l-16-4-6-3z" fill="#9096E2"/>
<path transform="translate(1e3 626)" d="m0 0 3 4 2 6v10h-8l-1 2-2-2 5-16z" fill="#8C878A"/>
<path transform="translate(1248,1168)" d="m0 0h4v2h6v2h2v2h4v2h4v2h2v2h2l1 3 3 1 2 4 2 1v6l-2-1v-2h-2v-2h-2l-2-6-4-2v-2l-4-1v-2l-6-1v-2l-10-3z" fill="#8F96E4"/>
<path transform="translate(367,1140)" d="m0 0 1 4-2 4h-2v2h-2v2h-2v2h-2v2l-6 2h-22v-2h-2v-2h-2v-2l4 1 4 2 18 1v-2l7-4 5-6z" fill="#5663E5"/>
<path transform="translate(1043,677)" d="m0 0h3v6l-4 6-6 4h-12v-4l11-1 5-4z" fill="#010108"/>
<path transform="translate(1273,1472)" d="m0 0h2l-1 8-3 11h-30l5-6 3 1-1 3h19l3-11z" fill="#6B76E6"/>
<path transform="translate(1247,1376)" d="m0 0h1v8h-2l-1 8-1 4h-2v4h-2l-2 7-5 1-1 2 1-6 5-8 2-4h2l1-6z" fill="#9096E1"/>
<path transform="translate(1011,469)" d="m0 0 3 1-2 2h-4v4l-4 2h-6l-4-1-2-1v2h-7l-4-3 22-4z" fill="#8B868D"/>
<path transform="translate(1165,1144)" d="m0 0 4 1-15 15-11 14-2-1 4-5 1-7 2-3h4l1-2 4-4h3v-6z" fill="#8A91E4"/>
<path transform="translate(784,1464)" d="m0 0 7 1 2 1v2l5 1 3 6 5-1v3 2l6 2 2 2 2 1v3l-5-2-14-10-13-10z" fill="#868EE6"/>
<path transform="translate(924,1616)" d="m0 0 3 1 1 7v2l5 1 12-2 5-1v-2h2l1-2h2 3v2l-14 7-11 1-6-2-3-8z" fill="#858DE6"/>
<path transform="translate(663,1237)" d="m0 0 2 1-4 23-3 19h-2v-10h2v-16l4-16z" fill="#8F96E2"/>
<path transform="translate(815,698)" d="m0 0h1v6h-2v8l-2 4h-2v5l-4 5h-2v2l-5-1-9-4-6-1v-2l9 1 7 3h5l6-14 3-10z" fill="#515EE4"/>
<path transform="translate(799,671)" d="m0 0 13 5v2h8v2h2v10l-2 6h-2v2h-2l1-6 2-4 1-6-9-3-17-6v-1z" fill="#5260E4"/>
<path transform="translate(1054,451)" d="m0 0 3 1 3 7-10-1v2l-9 3-1 1h-7l-1-2 16-7z" fill="#898693"/>
<path transform="translate(683,1552)" d="m0 0h5v2l6 2 10 5 13 5 2 2h-9v-2l-12-2v-2h-2v-2h-3v-2h-5l-2-4z" fill="#9097DF"/>
<path transform="translate(1436,992)" d="m0 0 2 1v5h2v6h-2v6l-2 4-8 4h-14l-2-4h-2v-2h-2l1-3 5 4v2h14l4-1v-2h2l2-6z" fill="#505DE4"/>
<path transform="translate(810,1440)" d="m0 0h6v2l5 1 9 5 10 4v2l4 2-2 1-4-1v-2l-10-1-2-1v-2h-2v-2h-2v-2h-7l-1-4z" fill="#8F96E4"/>
<path transform="translate(326,868)" d="m0 0 3 4 2-1 4 11 1 4h2l2 3v3h-5l-7-12-2-6z" fill="#9199E6"/>
<path transform="translate(662,1456)" d="m0 0h10l-20 10-10 7h-2v-3h2v-2h2v-2h2v-2l6-2v-2l10-2z" fill="#9197DD"/>
<path transform="translate(693,1441)" d="m0 0 11 1 5 2v-2h7l4 1v2l2 1-18 1-5 1h-2v-3h-5l4-2z" fill="#6470E6"/>
<path transform="translate(440,1206)" d="m0 0h4v2h2l1 4-2 4-2-7-15 3-12 2-16 2v-2h6v-2h10v-2l15-1 1-2h7z" fill="#5563E5"/>
<path transform="translate(1137,1177)" d="m0 0 2 1-2 6-13 20-1-4 4-13 2-1v2h2l1-6-2-1 4 1-1-3 2-1 1 1z" fill="#878EDF"/>
<path transform="translate(633,1296)" d="m0 0h2l1 6v6l-2 1v-3h-2v13l-1 4 1 4-6 1 3-17z" fill="#828BE6"/>
<path transform="translate(1625,1096)" d="m0 0h10l1 4h2v8h2l2 4v5l-2-1-3-7-5-9v-2l-8 3-4 3h-4v-2h2v-2h2v-2h5z" fill="#5B68E6"/>
<path transform="translate(1160,1636)" d="m0 0h3v57h-1l-1-54-7 4-10 5-3-1 3-1v-2l8-2v-2h4v-2h4z" fill="#A1A1A1"/>
<path transform="translate(1242,1040)" d="m0 0h9l-3 3v1h-6v2l-14 2-5 1-1 2-4-3 6-3 16-4z" fill="#9096DE"/>
<path transform="translate(762,628)" d="m0 0 6 1 10 3 2 2h-6v-2h-11l-2 2-1 6h-2v6l-2 6h-2v4h-2v-5l3-7 4-12z" fill="#4B59E4"/>
<path transform="translate(856,1512)" d="m0 0 4 1 8 3 3 2 4 2 5 3h5v2l3 1v2l6 1 8 5-4 1-28-14-14-8z" fill="#868EE5"/>
<path transform="translate(1338,1312)" d="m0 0h6l-2 6-2 9-4 8-4-2v-5l3-2 2-10h2z" fill="#9198E4"/>
<path transform="translate(1638,1121)" d="m0 0 2 1 3 7 3 6v2l-8 5-20 10 1-5 1-1h6v-2h2v-2l8-2 6-2v-4-4h-2v-2h-2z" fill="#505DE4"/>
<path transform="translate(640,1516)" d="m0 0 4 2v2h2l2 3v3l4 2 8 6v2l-6-1-6-3v-2h-2l-4-6v-4h-2z" fill="#9096E1"/>
<path transform="translate(844,1456)" d="m0 0h4l3 3 7 3v2l5 1 8 4 3 3h-6l-2-3-10-1v-2h-2v-2h-2v-2l-6-1-2-2z" fill="#9197DD"/>
<path transform="translate(1030,1390)" d="m0 0 7 1 19 6 1 2-4 1-3-1v-2h-7v3l4 2-1 3-9-9-7-5z" fill="#8B92DE"/>
<path transform="translate(1007,1327)" d="m0 0v3l-1 2h-2v4h-2v2h-2v2l-4 1-11-3-9-4-14-3v-2l11 2 17 5 2 1h7l5-9z" fill="#9096DF"/>
<path transform="translate(1061,461)" d="m0 0 5 5 8 7v3h-9l-3-2-2-4z" fill="#8B868D"/>
<path transform="translate(1136,623)" d="m0 0 3 1 6 7 5 5-2 3-4-1v-2l-7-1-2-11z" fill="#8C8990"/>
<path transform="translate(726,480)" d="m0 0 3 1-4 3-15 4-9 4-9 3-8 1 2-2 29-11z" fill="#E2E8E7"/>
<path transform="translate(1105,1488)" d="m0 0 4 1 2 4 3 1 2 4 2 1 1 4 1 2-2 2-1 3h-2l-8-16z" fill="#8890E4"/>
<path transform="translate(1332,1036)" d="m0 0 5 2 12 10 10 7v1h-6l-1-4-4-2-1-1-9-1-1-5-3-1v-3h-2z" fill="#868EE5"/>
<path transform="translate(1687,866)" d="m0 0 3 3 1 8-1 3h3l1 5v13l-2-2-1-8h-2l-2-14h-2z" fill="#C9D0E5"/>
<path transform="translate(1501,467)" d="m0 0h2l5 11v2l-4 2h-3l-5-11v-2z" fill="#CED3D9"/>
<path transform="translate(1155,774)" d="m0 0 1 3-1 21-3-1v-3l-5-1 1-5z" fill="#898694"/>
<path transform="translate(988,736)" d="m0 0h4v4h3l2-3 1-1h5l-1 4-7 6-7-1-2-6z" fill="#8E8989"/>
<path transform="translate(797,1296)" d="m0 0 2 1v7l1 2v6l-1 6 1 5v22l-2-1-2-47z" fill="#6571E6"/>
<path transform="translate(1232,991)" d="m0 0 6 1 1 5 5 5v6h2l2 6v5l-3-3-8-16-5-7z" fill="#9097DF"/>
<path transform="translate(1414,984)" d="m0 0h12l8 2v2h2v4l-4-1v-2l-5-1h-11l-5 4h-3v-4l6-2z" fill="#5664E5"/>
<path transform="translate(1131,498)" d="m0 0 4 1 3 8 1 10-1 8h-2l-1-13h-3v-12z" fill="#8A868F"/>
<path transform="translate(901,459)" d="m0 0m-2 1 2 1-3 4-1 5-4 8-2 5-4-2 3-10 6-8z" fill="#C7CBD1"/>
<path transform="translate(454,1328)" d="m0 0h8l-3 2h-3v2l-9 1-5-1v2h-10v2h-10v-2l28-5z" fill="#505EE4"/>
<path transform="translate(1416,992)" d="m0 0h13l3 4v10l-2 2-1-12-5-2h-6v2h-2l-1 4v7l3 1v2l-4-1-2-3v-9z" fill="#5966E5"/>
<path transform="translate(1687,862)" d="m0 0h2l3 10v8h-2l-1-11-2-1-1 5 2 1-1 4-5 6-1-4 2-10z" fill="#9BA2E4"/>
<path transform="translate(1048,1318)" d="m0 0 2 1-2 5-12 19-2-1v-5l2-3h2v-2l3-1-1-6 4-4 1 1 1-2h2z" fill="#6D78E6"/>
<path transform="translate(1127,610)" d="m0 0 5 2 3 6-3 6h-6v-13z" fill="#85839B"/>
<path transform="translate(961,1366)" d="m0 0h9v2h11l8 2 3 3-6 1-22-5z" fill="#6772E6"/>
<path transform="translate(651,1230)" d="m0 0h1v6l2 1-2 11-4 1-3 10-2 1 1-7z" fill="#8B92E5"/>
<path transform="translate(1214,1056)" d="m0 0h2l-1 5-5 2-6 3 4 1-4 2-4 1-1 2-7 1 4-5 14-10z" fill="#8A91E4"/>
<path transform="translate(377,831)" d="m0 0 10 1 9 3-1 3h-7l-12-3-1-3z" fill="#8992E5"/>
<path transform="translate(784,635)" d="m0 0 7 2 3 1v6l-3 6-4 14-3 8h-1l1-10 2-6h2v-7l2-5h2v-4l-8-2z" fill="#5562E5"/>
<path transform="translate(1098,1416)" d="m0 0 5 2 9 5 12 9 3 4-2 1-2-1v-2l-9-2-2-6h-2l-4-4h-2v-2l-4-1-3-2z" fill="#858DE5"/>
<path transform="translate(1544,1178)" d="m0 0 4 3 2 7h2v2l10-4 3-2h3v4h-4v2l-5 2h-7l-4-2-2-3v-5h-2z" fill="#5562E5"/>
<path transform="translate(1620,874)" d="m0 0h3l1 6h2l2 8v14l-2-1-2-11-2-9-4-1z" fill="#D0D6E6"/>
<path transform="translate(796,1670)" d="m0 0 6 1 20 4 18 1 4 4-9-1-11-1-14-3-10-2-4-1z" fill="#8F96E2"/>
<path transform="translate(1102,848)" d="m0 0h2v9l-4 1v2l-10 1 2-4 8-7z" fill="#8A868F"/>
<path transform="translate(708,692)" d="m0 0 5 1 15 5 2 5-5 12-2 7h-1v-10h2v-3h2v-7l-1-3-13-3-4-2z" fill="#505DE4"/>
<path transform="translate(1578,1170)" d="m0 0 4 1-8 4-15 9h-5l-4-6v-2h2l1 4 9-2 10-5z" fill="#5462E5"/>
<path transform="translate(1148,752)" d="m0 0 1 4-8 18-1 2-3-1 3-5-4-2v-4h6v-2h2v-5z" fill="#8B878D"/>
<path transform="translate(925,1360)" d="m0 0h13v2h18l4 3v2l-10-1-25-5z" fill="#6D78E6"/>
<path transform="translate(652,1280)" d="m0 0h4v16h-2v8l-3 3z" fill="#8F96E6"/>
<path transform="translate(750,640)" d="m0 0 2 1-3 8-2 6-2 1-7-3-10-3-8-3v-1h8l4 2v2l14 1 1-7 1-2h2z" fill="#4E5CE4"/>
<path transform="translate(958,1674)" d="m0 0h6l-2 2-18 4h-16l2-2 8-2 16-1z" fill="#636FE6"/>
<path transform="translate(1577,1080)" d="m0 0h8l3 2v2h2v6h2l-1 4-5-8-2-3h-5l-9 5h-2v-4l8-3z" fill="#5360E5"/>
<path transform="translate(1628,892)" d="m0 0 2 4 2 9v5l-3-4 2 11 1 1v6h2l2-4 1 2-4 6-2-2-5-21 1-4z" fill="#6D77E3"/>
<path transform="translate(426,704)" d="m0 0h2v4h-2v2h-4v4h-2v2l-6 2h-18l-4-4 6 2h8l8-2h4v-2h2l2-4h2v-2h2z" fill="#5260E4"/>
<path transform="translate(395,672)" d="m0 0 3 1-2 3-6 2-1 6-1 2h-3l1 10h2l2 6-1 4-5-7v-14l6-9z" fill="#5360E5"/>
<path transform="translate(840,1624)" d="m0 0 1 2 1-2h2v2l4-2h7 3 6v2h5l-2 2h-25l-3-2z" fill="#8C93E6"/>
<path transform="translate(1084,1244)" d="m0 0h2v2h-2v4h-2v2h-2v2l-3 2h-3v2l-7 3-1 3-4-1 8-7h2l2-4 4-4h4z" fill="#7E87E2"/>
<path transform="translate(1232,1146)" d="m0 0h1l1 10 2 4h2v2h6l4 2v4h-6l-6-4v-2h-2v-2h-2z" fill="#8F96E5"/>
<path transform="translate(1360,1057)" d="m0 0 5 2 13 10 10 8-3 2-1-3-4-2v-2l-4-1-4-2v-2l-4-1-1-2h-2l-2-2-3-1z" fill="#848DE6"/>
<path transform="translate(1130,784)" d="m0 0h4l-2 5-9 12-2 1-1-6h2v-2h2v-4h2v-2h2l1-3z" fill="#8B8791"/>
<path transform="translate(925,479)" d="m0 0 3 1v6l-1 2h-3v2l-3 1-1 3h-2v2l-3-1 8-15z" fill="#8A8790"/>
<path transform="translate(688,220)" d="m0 0h1l-2 22v12l1 18h-1l-3-17v-11l3-20z" fill="#BEC2CB"/>
<path transform="translate(1148,848)" d="m0 0h4v14l-3 6-3-1 1-5v-11z" fill="#8C878A"/>
<path transform="translate(660,1536)" d="m0 0 4 1v2l5 2 3 1v3l6 2 2 1v2l3 1v1h-5v-2h-2v-2h-4l-2-3-7-2-3-3z" fill="#9096E1"/>
<path transform="translate(1023,1304)" d="m0 0v3l-2 2-1 7h-2l-1 4-1 2h-2v2h-4v2h-2l1-4 7-10h2l1-4z" fill="#727CE5"/>
<path transform="translate(710,792)" d="m0 0h12v2l-10 2-3 4 1 6 4 4v2h-4v-2h-2v-4h-2v-8l2-4h2z" fill="#5A67E5"/>
<path transform="translate(1314,1375)" d="m0 0 1 2-11 21-3 1-1-3h2l3-12h2l1-3 1 1 2-6z" fill="#8990E5"/>
<path transform="translate(1672,896)" d="m0 0h4l-1 6-9 2-18-1v-2l23-2z" fill="#D2D8E6"/>
<path transform="translate(967,1595)" d="m0 0h11l-2 5-6 9-2 1-2-2 4-4 1-3-6-3z" fill="#858CE1"/>
<path transform="translate(920,1591)" d="m0 0 5 1-1 3 2 2v3l-1 7 1 2-1 1h1v5l-3-1-2-10z" fill="#8B92E0"/>
<path transform="translate(806,1369)" d="m0 0h3l-1 6-2 2-5-3-4-1-1 3h-10l3-2 11-4z" fill="#87859A"/>
<path transform="translate(1020,1360)" d="m0 0 3 1-2 5-9 15-11-3-8-3 3-1 10 2 1 2h5l2-6h2l1-6z" fill="#6773E6"/>
<path transform="translate(1205,665)" d="m0 0 1 2-7 17-3-1-1-2v-7l1-2h6v-4h2z" fill="#8C8789"/>
<path transform="translate(1032,1590)" d="m0 0 10 2 18 5-4 3-16-4v-2h-6v-2l-4-1z" fill="#6570E6"/>
<path transform="translate(1133,1584)" d="m0 0h8l-6 7-9 8h-2l-1-5h5v-4l5-5z" fill="#858DE6"/>
<path transform="translate(895,1326)" d="m0 0h1v7l-13 4-1 1h-8v-2h-10l-1-3 6 1h18l6-5z" fill="#6874E6"/>
<path transform="translate(1616,1152)" d="m0 0h2l3 8 8 16 3 4-1 3-3-1-3-8-4-4-1-8h-2l-2-6z" fill="#4E5CE4"/>
<path transform="translate(578,494)" d="m0 0 4 2 3 7v7l-1 2-4-2-3-15z" fill="#8791E5"/>
<path transform="translate(1141,1446)" d="m0 0h3v2l8 2v2h15v1l-5 1h-14l-6-2v-2h-2z" fill="#9096E1"/>
<path transform="translate(931,758)" d="m0 0h3l4 6v4h2v2h2v2h2v6l-4-2-10-16z" fill="#8D898C"/>
<path transform="translate(1082,865)" d="m0 0h2v8l-4 3h-7l-1-4z" fill="#8A8790"/>
<path transform="translate(1024,1640)" d="m0 0h22l9 2 7 2v2h2v2l-5-1-5-2-14-3h-16z" fill="#8F96E3"/>
<path transform="translate(1135,1596)" d="m0 0 3 1-1 3-2 1v2l-4 3h-2v2h-2v2h-2l-1 2v-2l-2-1 3-5z" fill="#5C68E6"/>
<path transform="translate(786,1440)" d="m0 0 1 2h2l-3 6h-2v8l-2 2 2 2v4l-4-2-2-4 7-17z" fill="#828AE6"/>
<path transform="translate(422,1216)" d="m0 0h12v1l-10 1v2l-13 1-3-1v12l-2-1v-11l4-2 8-1z" fill="#505EE4"/>
<path transform="translate(632,1568)" d="m0 0h7v2l5 1 1 2 2-1v2h3v3l6 2-1 2-6-2-11-6-6-4z" fill="#858DE6"/>
<path transform="translate(965,1332)" d="m0 0 11 1 15 6 9 1v-2h2v-2h2v4l-4 2h-8l-10-4-8-3-9-2z" fill="#636FE7"/>
<path transform="translate(1144,639)" d="m0 0 1 2h2v3l4 1 1-3v8l-4 1-4-1v-2h-2l-1-7z" fill="#898691"/>
<path transform="translate(1120,1599)" d="m0 0 3 1v2l-5 4-10-1-9-2v-1l9-1h8z" fill="#8890E4"/>
<path transform="translate(820,1344)" d="m0 0h20v1l18 2v3l-24-3-14-2z" fill="#6B76E6"/>
<path transform="translate(1095,592)" d="m0 0h15l4 4 1 3-5-1-18-4z" fill="#888593"/>
<path transform="translate(916,1597)" d="m0 0h1l3 20 1 5h-5l-1-2v-7-4-7z" fill="#8890E6"/>
<path transform="translate(1039,1515)" d="m0 0 2 1-1 4h-2l-2 6h-2v2h-12l4-3 10-5v-2h2z" fill="#9197DE"/>
<path transform="translate(1620,1190)" d="m0 0h2v2l-13 7-1 1h-8v-4h-2v-2l12 2v-2z" fill="#5461E5"/>
<path transform="translate(1171,1089)" d="m0 0 5 5-4-1 1 7-2 3h-2l-2 7-1-2-4 4-1-2 8-12v-6h2z" fill="#838BE6"/>
<path transform="translate(509,494)" d="m0 0h5l-2 4-11 4h-5l-1-3 5-3 8-1z" fill="#8B94E5"/>
<path transform="translate(840,1323)" d="m0 0 21 9v2h-9v-2h-4v-4l-7-1-5-2z" fill="#6B76E6"/>
<path transform="translate(913,720)" d="m0 0h3l3 8 2 3 2 9-2 4-8-21z" fill="#8B878D"/>
<path transform="translate(1201,608)" d="m0 0 3 1 5 7 3 12h-2v-4h-2l-1-3-3-1v-2h-2z" fill="#898696"/>
<path transform="translate(791,1216)" d="m0 0 2 3 3 9 3 15 1 6-2-1-3-8v-7h-3z" fill="#8C93DE"/>
<path transform="translate(336,1108)" d="m0 0h14l2 2h-16v2l-5 3-7 5 1-4 1-2h2v-2z" fill="#4856E3"/>
<path transform="translate(362,1120)" d="m0 0 2 2v14l-4 7-4 5h-2l1-4 3-5h2l1-3z" fill="#5360E5"/>
<path transform="translate(758,618)" d="m0 0 6 1 4 5-10-2v2h-2v6l-3 7h-1v-7l2-8h2v-2h2z" fill="#5562E5"/>
<path transform="translate(1548,1096)" d="m0 0h6l-4 3-4 1v8h2l4 8-1 4-1-4h-2v-4h-2l-2-4-2-1v-6l3-1v-2h3z" fill="#5461E5"/>
<path transform="translate(997,892)" d="m0 0h1l1 10-1 10h-5l1-7 2-12z" fill="#898591"/>
<path transform="translate(773,716)" d="m0 0 9 1 2 1v2h-4v-2h-6l-2 10-3 4-1 4h-2l2-9 4-10z" fill="#4D5BE4"/>
<path transform="translate(971,1614)" d="m0 0 1 2-1 2 3 1v1l2 1-2 2-7 1v2h-6l2-4z" fill="#6772E6"/>
<path transform="translate(944,1326)" d="m0 0h6l12 3v2l3 1h-11l-10-2z" fill="#6D78E3"/>
<path transform="translate(456,1303)" d="m0 0h1l3 17-2 4-9 1-1 1h-6l4-2h2l1-3 9 1-2-5z" fill="#4E5CE4"/>
<path transform="translate(1096,1244)" d="m0 0 2 1-7 11-9 14-2 1 1-5 1-3h2l1-3 1-4h2v-2h2v-2h2v-4h2z" fill="#6A75E6"/>
<path transform="translate(446,1218)" d="m0 0 2 2 2 16h2l1 5 9 1v-2h8v1l-12 3h-6l-3-6-3-15z" fill="#4D5BE4"/>
<path transform="translate(1552,1102)" d="m0 0h2v6h2v2h2l2 6v4h2l2 5-1 3-6-10-5-8z" fill="#5462E5"/>
<path transform="translate(1260,1469)" d="m0 0h3l-1 3h-2v6l-5 2v2h-2l-1 2h-2l-3 1v-2h2v-2h2l2-4z" fill="#616DE6"/>
<path transform="translate(1143,1144)" d="m0 0 1 4 4 2-5 3-3 7-4 6-1-3z" fill="#878EE6"/>
<path transform="translate(837,1497)" d="m0 0 3 1v1l7 2 2 7-5-2-10-6-1-2z" fill="#8990E5"/>
<path transform="translate(800,1385)" d="m0 0 3 1-6 16-1-3-2-1v-5l4-7z" fill="#868398"/>
<path transform="translate(1248,1019)" d="m0 0 2 3v2h4v6h2v9l-4 1-1-10-3-6z" fill="#9096E1"/>
<path transform="translate(1048,677)" d="m0 0 4 3v8h-9l4-10z" fill="#8D8888"/>
<path transform="translate(717,651)" d="m0 0 9 2 4 2 7 2 4 2 8 1-1 2h-8v-2h-4v-2l-10-2-6-2h-2l-1 2-2-1z" fill="#5663E5"/>
<path transform="translate(933,1587)" d="m0 0 11 1 1 1 22 1-1 2h-14l-18-2-2-2z" fill="#8181A2"/>
<path transform="translate(818,1488)" d="m0 0h11l3 3-4 1v2l5 2-2 2-13-8z" fill="#868EE6"/>
<path transform="translate(1629,904)" d="m0 0 2 3 1 9h4l1-3 1 4-4 7h-2l-3-12-1-6z" fill="#E2E8E7"/>
<path transform="translate(1644,900)" d="m0 0h20v1h-16v2h16v1l-18 1-3 3h-1v-6z" fill="#A0A7E0"/>
<path transform="translate(1071,738)" d="m0 0h1v7l-3 3-2 4h-7l6-7 3-6z" fill="#87869D"/>
<path transform="translate(983,1594)" d="m0 0 3 1-3 2zm-1 3 2 3h-2l1 5-3 5-4 2-3 3-1-2 7-11z" fill="#6C77E6"/>
<path transform="translate(863,1347)" d="m0 0 8 1v1l9 1v2h4l-1 2-25-4v-2z" fill="#6A75E6"/>
<path transform="translate(820,1303)" d="m0 0 4 5 9 9-1 4-6-3-2-6-3-1z" fill="#6A75E6"/>
<path transform="translate(944,608)" d="m0 0h4v15l-4 1z" fill="#8D8E83"/>
<path transform="translate(1161,1571)" d="m0 0h2v8l-3-1-1-1-3 4v2l-4 1-1 2-2-1 2-4 4-4h2v-2h2z" fill="#6A75E5"/>
<path transform="translate(1039,1286)" d="m0 0 1 4-5 3-1 5h-2l-1 4-3 2h-4l2-4h2l2-4h2l2-6h2v-2z" fill="#8189E0"/>
<path transform="translate(799,1252)" d="m0 0h2l5 14v4h3l1 10h-2l-2-6-2-3-2-7z" fill="#8C93E0"/>
<path transform="translate(1690,888)" d="m0 0 2 2 2 8 1 15 5-1-5 5-2-3-3-18z" fill="#767FE5"/>
<path transform="translate(1144,870)" d="m0 0h3l-1 5-7 11-1-2-2-1 3-3 1-8z" fill="#8B878D"/>
<path transform="translate(1114,836)" d="m0 0 3 1-1 5h-2v2h-2v2h-2v2h-5l2-5z" fill="#8A8690"/>
<path transform="translate(979,1571)" d="m0 0 20 7-2 1-1 2-4-2-8-1-1-3-7-1z" fill="#8A8690"/>
<path transform="translate(374,1256)" d="m0 0h6l-2 2-4 2 1 10 1 3v7h-2l-4-18h2v-4h2z" fill="#505DE4"/>
<path transform="translate(1626,1104)" d="m0 0h4l4 8-1 3-2-3-1-4-7 2-3 2h-6l4-3 4-1v-2z" fill="#505EE4"/>
<path transform="translate(1024,884)" d="m0 0 7 2h12v2l-5 2h-14z" fill="#8C878B"/>
<path transform="translate(416,700)" d="m0 0h2l2 5-6 5-5 2h-11l-2-2 13-1 6-3z" fill="#5360E5"/>
<path transform="translate(378,1291)" d="m0 0h1l2 11 3 1 6-1h10v2h-14v2h-6l-2-4z" fill="#515FE4"/>
<path transform="translate(920,666)" d="m0 0 11 1 14 2v1l-19 1-8-3z" fill="#898693"/>
<path transform="translate(799,640)" d="m0 0h1v7l-3 5-5 20-2-1v-6l5-14z" fill="#4E5CE4"/>
<path transform="translate(790,1626)" d="m0 0 19 2 9 1v1h-28z" fill="#717BE5"/>
<path transform="translate(1029,1583)" d="m0 0 7 1 3 1 7-1 2 3 6 1-1 3-10-2-14-4z" fill="#858DE5"/>
<path transform="translate(461,1290)" d="m0 0h3v2h-2l1 11 2 9v15h-1l-1-13-3-14v-9z" fill="#5764E5"/>
<path transform="translate(404,1248)" d="m0 0h2l-1 4-13 4h-12l2-2h10v-2l12-2z" fill="#4D5BE4"/>
<path transform="translate(1262,1458)" d="m0 0v3l-9 11-5 4-1-4 3-3 4-1 1-4z" fill="#8A91E6"/>
<path transform="translate(489,1284)" d="m0 0h3v2h-6v2h-2v2h-20l4-2 17-3z" fill="#4F5DE4"/>
<path transform="translate(1282,1200)" d="m0 0h3l1 6h2v17h-1l-2-10-3-9z" fill="#9398D6"/>
<path transform="translate(1110,912)" d="m0 0h4l-1 5-7 7h-2v-5l4-5h2z" fill="#8C888A"/>
<path transform="translate(1694,898)" d="m0 0h1l1 10 6-4 1 2-2 5-6 3-1-1z" fill="#D8DEE5"/>
<path transform="translate(1234,952)" d="m0 0 11 6 1 4-9-2h-4z" fill="#8A91DF"/>
<path transform="translate(400,671)" d="m0 0 13 1 7 6v2h-2v-2h-6v-2h-4v-2l-8-2z" fill="#5562E5"/>
<path transform="translate(987,656)" d="m0 0 2 1-5 13-4-2v-2l-3-1 5-4z" fill="#85849C"/>
<path transform="translate(826,1631)" d="m0 0h17l8 1 1 2h-20v-2h-6z" fill="#6672E6"/>
<path transform="translate(1072,1601)" d="m0 0 8 1v2l9 2-1 4h-4v-2l-4-1-2-1v-2h-6z" fill="#6571E6"/>
<path transform="translate(367,1140)" d="m0 0 1 4-2 4h-2v2h-2v2h-2v2h-2v2h-6v-2l7-4 5-6z" fill="#5361E5"/>
<path transform="translate(1195,1120)" d="m0 0h5l-4 4-14 10-3-1 2-3 5-2 3-3 2-3h2z" fill="#858DE6"/>
<path transform="translate(325,1119)" d="m0 0h1v5h-2v4h-2v10h-2v-14l2-4z" fill="#5B67E6"/>
<path transform="translate(1491,464)" d="m0 0 2 1 1 2-17 5-4-1v-2l12-3z" fill="#BDC2D0"/>
<path transform="translate(679,1589)" d="m0 0 1 3 11 1 4 2 6 4-3 1-21-8-1-2z" fill="#878FE6"/>
<path transform="translate(409,1299)" d="m0 0h6l1 2v11l-2-1 1-9-13 1-2-2 1-1z" fill="#5764E5"/>
<path transform="translate(328,1104)" d="m0 0 4 1-10 8-5 7h-2l-1 4v-6h2v-4h3l1-4 6-2z" fill="#5260E4"/>
<path transform="translate(972,666)" d="m0 0h2v3l2 1v2h-12l-3-4z" fill="#8B8791"/>
<path transform="translate(918,576)" d="m0 0h7l-4 4v7l-6 1 1-9h2z" fill="#8E8886"/>
<path transform="translate(1299,1399)" d="m0 0 2 1-1 4-8 14-2 1-1-5 1-2h2l1-3h2l2-7z" fill="#888FE4"/>
<path transform="translate(408,1256)" d="m0 0 3 1-5 3h-10v2h-14v-1l12-2 2-1z" fill="#5361E5"/>
<path transform="translate(1590,1190)" d="m0 0 2 2 3 5 3 7 4 3 4-1v2l-6 2v-2l-5-2-2-5 1-3h-2v-2h-2z" fill="#5360E5"/>
<path transform="translate(702,672)" d="m0 0h2l-1 5-2 5v6l6 3v1h-9v-10l2-6h2z" fill="#515EE4"/>
<path transform="translate(1276,1438)" d="m0 0 1 3-10 14-3 2v-6h4l-1-3h3v-2h2v-6z" fill="#8991E4"/>
<path transform="translate(349,832)" d="m0 0h9l-1 3-7 3h-6v-2h2l1-3z" fill="#929AE5"/>
<path transform="translate(772,708)" d="m0 0h7l5 3 8 1v2h-9l-7-3h-5l-3 1v-2z" fill="#5664E5"/>
<path transform="translate(633,1296)" d="m0 0h2l1 6v6l-2 1v-3h-2v7l-2-2 1-8z" fill="#8990E6"/>
<path transform="translate(334,845)" d="m0 0h1l-1 8-3 7h-2l-1 2v-6l1-1 1-7z" fill="#BCC4E6"/>
<path transform="translate(1129,818)" d="m0 0h1v8h-2v2l-6 3h-2l2-4z" fill="#8A8894"/>
<path transform="translate(1335,577)" d="m0 0h1v9l-2 10h-2v2h-3l-1 4-4-1 3-2 1-3h2l2-5z" fill="#505EE4"/>
<path transform="translate(1160,1636)" d="m0 0h3v2l-9 5-10 5-3-1 3-1v-2l8-2v-2h4v-2h4z" fill="#9097DF"/>
<path transform="translate(1032,1638)" d="m0 0h15l6 3v1l-7-1-22-1v-1z" fill="#636FE7"/>
<path transform="translate(368,1120)" d="m0 0h2v8h2v8h-2l-2 3z" fill="#5B68E6"/>
<path transform="translate(1094,928)" d="m0 0h7l-6 7-5 4-1-2 3-6z" fill="#868499"/>
<path transform="translate(1049,758)" d="m0 0 1 4h-2v2h-13l-2-2z" fill="#878496"/>
<path transform="translate(740,736)" d="m0 0h6v2l12 2v-4h2l-1 6-3 1-16-5z" fill="#4F5DE4"/>
<path transform="translate(379,683)" d="m0 0h1v12l2 8 2 2-1 3-1-3-4-1-1-16z" fill="#505EE4"/>
<path transform="translate(1012,1648)" d="m0 0h2v2h-2v2l-18 10h-2v-2l7-4h3v-2l7-4z" fill="#8F96E3"/>
<path transform="translate(799,1258)" d="m0 0h2l3 7 2 7 2 3v3h-2l-4-6v-7l-3-1z" fill="#636FE7"/>
<path transform="translate(1532,1146)" d="m0 0h6l-1 2-4 2 1 6 2 2-1 4v-2l-4-2-1-1v-9h2z" fill="#4D5BE4"/>
<path transform="translate(967,804)" d="m0 0h3v2h4l2 4v4l-6-3v-2l-4-2z" fill="#7B7EB5"/>
<path transform="translate(743,1609)" d="m0 0 9 2 1 4-11-2-4-1v-2z" fill="#868EE6"/>
<path transform="translate(796,1592)" d="m0 0h4v2h2v2h-18v-2z" fill="#8F96E6"/>
<path transform="translate(1147,1572)" d="m0 0 2 1 3-1 2 1-10 10h-2l-1-5h4v-3z" fill="#878FE6"/>
<path transform="translate(932,1554)" d="m0 0 5 1 7 3v4l-5-1-3-1v-2l-5-2z" fill="#8B868D"/>
<path transform="translate(406,1292)" d="m0 0h12v2h2v5l-3-4h-7l-10 1v-2h6z" fill="#4B59E4"/>
<path transform="translate(1632,1098)" d="m0 0 6 2v8h2l2 4v5l-2-1-3-7-5-9z" fill="#515EE4"/>
<path transform="translate(1161,694)" d="m0 0h7l1 5-7 1-5-1 2-1z" fill="#8483A1"/>
<path transform="translate(714,688)" d="m0 0h6v2l12 1v3l4 1-1 2-21-8z" fill="#505EE4"/>
<path transform="translate(927,1545)" d="m0 0 6 1 9 3 2 4-5-1-12-5z" fill="#8991E4"/>
<path transform="translate(1212,1110)" d="m0 0 4 1-5 4-9 5h-2l1-4 10-5z" fill="#868EE6"/>
<path transform="translate(1274,980)" d="m0 0 7 4 9 8-2 1-8-3 1-3-5-1v-2l-2-1z" fill="#848CE6"/>
<path transform="translate(1690,880)" d="m0 0h3l1 5v13l-2-2-2-8z" fill="#C3CAE6"/>
<path transform="translate(729,716)" d="m0 0h1v8l-2 6v2h6l2 4-10-3-2-3 4-10z" fill="#505EE4"/>
<path transform="translate(1147,1585)" d="m0 0 1 4-4 5-4 2h-3l2-4z" fill="#6A75E6"/>
<path transform="translate(856,1512)" d="m0 0 4 1 8 3 3 2 4 2 4 3-1 2-22-12z" fill="#858DE6"/>
<path transform="translate(440,1206)" d="m0 0h4v2h2l1 4-2 4-2-7-11 2-4-1 3-1 1-2h7z" fill="#4F5DE4"/>
<path transform="translate(669,1176)" d="m0 0 3 1v11l-3 1-2-8z" fill="#6A75E6"/>
<path transform="translate(1248,1094)" d="m0 0h6l-1 3-15 5h-2v-3l5-2 7-1z" fill="#8B92E6"/>
<path transform="translate(1257,1088)" d="m0 0 7 2v-2l4 1h4l2 2-7 2h-6l-1-2h-4z" fill="#8C93E4"/>
<path transform="translate(1408,1009)" d="m0 0 6 4v2l13 1-1 2h-12l-2-4h-2v-2h-2z" fill="#4C5AE4"/>
<path transform="translate(1618,880)" d="m0 0 5 1 3 12v7l-2-4-3-12h-2l-3 4 1-5z" fill="#767FE5"/>
<path transform="translate(613,509)" d="m0 0h1l2 8h8v3l-6 2h-4l-1-4z" fill="#CCD1D8"/>
<path transform="translate(897,1320)" d="m0 0 15 1 10 1 2 2-3 1-9-1-2-1-13-1z" fill="#9096E1"/>
<path transform="translate(1694,891)" d="m0 0h1l2 12 1 2 6-5 1 6-3 2-1-3-3 3h-2l-2-10z" fill="#757FE3"/>
<path transform="translate(1687,862)" d="m0 0h2l3 10v8h-2l-1-11-2-1-4 4 2-6z" fill="#7680E5"/>
<path transform="translate(784,720)" d="m0 0 9 1 7 3v2h4v2l-5-1-9-4-6-1z" fill="#5965E5"/>
<path transform="translate(398,664)" d="m0 0h10v2l6 1-4 1-10-1-6 1-2-2z" fill="#4F5DE4"/>
<path transform="translate(784,635)" d="m0 0 7 2 3 1v6l-3 6h-1v-6h2v-4l-8-2z" fill="#4B59E4"/>
<path transform="translate(1148,1640)" d="m0 0h4v2l-4 2h-4v2l-3 2h-5l2-4h4v-2z" fill="#636FE7"/>
<path transform="translate(608,1546)" d="m0 0 4 1 3 5-1 3 3 1-2 1-7-6z" fill="#8189E6"/>
<path transform="translate(408,1232)" d="m0 0h2l1 14 1 4h2l-1 5-2 1-3-16z" fill="#5360E5"/>
<path transform="translate(1416,992)" d="m0 0 2 1-3 7v7l3 1v2l-4-1-2-3v-9z" fill="#4B59E4"/>
<path transform="translate(1606,899)" d="m0 0 1 3-4 2h-20v-2l20-1z" fill="#DFE5E7"/>
<path transform="translate(326,868)" d="m0 0 3 4 2-1 2 8-3-1 1 4h-2l-3-8z" fill="#7D86E5"/>
<path transform="translate(416,666)" d="m0 0 6 1 2 1v7l-2-1v-2l-4-1-4-3h2z" fill="#5361E5"/>
<path transform="translate(546,481)" d="m0 0h16l8 3 2 2v3l-6-1 3-1-1-2-8-2-14-1z" fill="#7881E5"/>
<path transform="translate(618,1557)" d="m0 0 6 4 7 1 1 6-5-2-9-7z" fill="#848CE6"/>
<path transform="translate(961,1558)" d="m0 0h6v2l6 1 6 3v1h-6l-10-4z" fill="#8991E6"/>
<path transform="translate(979,1368)" d="m0 0 10 2 3 3-6 1-8-2z" fill="#6974E6"/>
<path transform="translate(1588,1174)" d="m0 0h2l2 3v3h2l2 6 2 2v6l-2-2v-4h-2l-6-11z" fill="#4F5DE4"/>
<path transform="translate(1630,1168)" d="m0 0 4 2v2h2l3 6-1 5-3-4-3-5z" fill="#5360E5"/>
<path transform="translate(1406,1155)" d="m0 0 1 4-5 14-2-4 1-4 1-6 4-1z" fill="#878FE6"/>
<path transform="translate(1648,1128)" d="m0 0 4 2v2h2v8h-2v2h-4v-2l3-2-2-6z" fill="#5562E5"/>
<path transform="translate(799,671)" d="m0 0 13 5 2 4-6-2-14-5v-1z" fill="#4C5AE4"/>
<path transform="translate(780,628)" d="m0 0h10v2l10 2-1 3-11-3-8-3z" fill="#5461E5"/>
<path transform="translate(380,1262)" d="m0 0h2v18l-2-4-2-12z" fill="#515FE4"/>
<path transform="translate(1165,1144)" d="m0 0 4 1-10 10-2-3h3v-6z" fill="#8890E6"/>
<path transform="translate(1681,876)" d="m0 0 1 4v3l2-1-1 5-3 4-1-4-2 4-1-3z" fill="#727CE5"/>
<path transform="translate(1159,627)" d="m0 0h1v7h-2l1 5-1 1h-5l2-6z" fill="#898593"/>
<path transform="translate(400,610)" d="m0 0 7 6 1 4h-2v2h-2v2l-4-1 3-4-1-5z" fill="#C4C9D3"/>
<path transform="translate(903,1536)" d="m0 0 8 1 7 3v2h2v2l-9-3-8-4z" fill="#868EE6"/>
<path transform="translate(1064,1401)" d="m0 0 6 1 11 5v1h-7l-2-2h-6z" fill="#878FE6"/>
<path transform="translate(1042,1330)" d="m0 0v3l-6 10-2-1v-5l2-3h2v-2z" fill="#6A75E6"/>
<path transform="translate(662,1198)" d="m0 0 1 4-3 12h-2v2h-2l3-12z" fill="#8A92E6"/>
<path transform="translate(1137,1177)" d="m0 0 2 1-2 6-4 5-1-1v-6l-2-1 4 1-1-3 2-1 1 1z" fill="#878FE6"/>
<path transform="translate(1577,1080)" d="m0 0h5l-4 4-8 4h-2v-4l8-3z" fill="#5562E5"/>
<path transform="translate(1628,892)" d="m0 0 2 4 2 9v5l-3-4-2 1-1-6h1z" fill="#7E87E5"/>
<path transform="translate(384,686)" d="m0 0h1l1 10h2l2 6-1 4-5-7z" fill="#5764E5"/>
<path transform="translate(1636,1675)" d="m0 0 2 3 1 12 3 3h-6z" fill="#AAAAA7"/>
<path transform="translate(958,1674)" d="m0 0h6l-2 2-14 3h-4v-3z" fill="#9197DB"/>
<path transform="translate(1087,1456)" d="m0 0h5l-1 2 1 4 2 1 2 5-1 3-8-13z" fill="#8991E4"/>
<path transform="translate(925,1360)" d="m0 0h13v2h8v3l-21-4z" fill="#6671E6"/>
<path transform="translate(623,1345)" d="m0 0h1v13l-3 4-1-5 2-11z" fill="#868EE6"/>
<path transform="translate(796,1273)" d="m0 0h2v22l-2-1-1-18z" fill="#616DE6"/>
<path transform="translate(321,1138)" d="m0 0h5l3 7 5 2v3l-6-2v-2h-2z" fill="#4E5CE4"/>
<path transform="translate(1e3 828)" d="m0 0 5 1 1 5-2 1-7-3v-2z" fill="#85839F"/>
<path transform="translate(1279,556)" d="m0 0 1 3-3 1-3 10-2 8h-1v-8l2-6 3-6h2z" fill="#5764E5"/>
<path transform="translate(993,1374)" d="m0 0 14 2v2h5v-2l2 1-2 4-11-3-8-3z" fill="#717CE6"/>
<path transform="translate(1104,1231)" d="m0 0h2l-2 5-4 4v-4h-2l-1 2h-3v-2l6-3z" fill="#8E94D7"/>
<path transform="translate(720,736)" d="m0 0h5l7 3 5 2 1 3h-2v-2l-12-2v-2h-4z" fill="#5562E5"/>
<path transform="translate(1008,1648)" d="m0 0 4 1-7 5h-3v2l-6 2v-2h2v-2l7-4h3z" fill="#636FE7"/>
<path transform="translate(1011,1584)" d="m0 0 7 1 14 4v1h-10v-2l-5-1-7-1z" fill="#717BE6"/>
<path transform="translate(985,1568)" d="m0 0h5l10 4 4 2-4 1-14-5z" fill="#868EE6"/>
<path transform="translate(453,1288)" d="m0 0h1l2 8v12l-2-4v-8h-2v-7z" fill="#5865E5"/>
<path transform="translate(360,1104)" d="m0 0h4v4l4 1v3l-6-1-2-3z" fill="#C1C7E6"/>
<path transform="translate(756,640)" d="m0 0h2v6l-2 6h-2v4h-2v-5l3-7z" fill="#5764E5"/>
<path transform="translate(1028,646)" d="m0 0 4 2 4 8h-6l-2-6z" fill="#8A868F"/>
<path transform="translate(1165,621)" d="m0 0h3v7l-4 1-1-2-2 1 1-5z" fill="#8E8988"/>
<path transform="translate(750,472)" d="m0 0 4 1-2 3-10 1-1 1h-5l2-2z" fill="#C3C7CB"/>
<path transform="translate(1253,232)" d="m0 0h7v4h-2v2h-4l-2-5z" fill="#010103"/>
<path transform="translate(1080,1603)" d="m0 0 8 1 13 3v1h-13l-2-2-6-2z" fill="#7983E6"/>
<path transform="translate(1411,1138)" d="m0 0h2l-1 7-3 8h-1v-9l2-4z" fill="#8890E2"/>
<path transform="translate(1214,1056)" d="m0 0h2l-1 5-5 2-2 1-4-2z" fill="#7D86E6"/>
<path transform="translate(955,650)" d="m0 0h5v2l2 1-4 1h-9l1-3z" fill="#01012D"/>
<path transform="translate(939,577)" d="m0 0 2 3-1 2h-4v2h-6l5-5z" fill="#8C8892"/>
<path transform="translate(1516,450)" d="m0 0h2l-1 4-9 6-1-2 5-5z" fill="#BBBFCB"/>
<path transform="translate(790,1630)" d="m0 0 4 2v16l-2-3z" fill="#6571E6"/>
<path transform="translate(1373,1068)" d="m0 0 5 1 10 8-3 2-1-3-4-2v-2l-4-1-3-1z" fill="#8089E6"/>
<path transform="translate(1055,882)" d="m0 0 1 4-4 2h-6v-3z" fill="#89868F"/>
<path transform="translate(985,820)" d="m0 0h7v7l-8-4z" fill="#8B878D"/>
<path transform="translate(727,704)" d="m0 0h1l-1 7-4 11h-1v-10h2v-3l2-1z" fill="#4E5CE4"/>
<path transform="translate(981,1664)" d="m0 0 3 1-8 4-10 3v-2h2v-2l12-3z" fill="#636FE7"/>
<path transform="translate(806,1369)" d="m0 0h3l-1 6-2 2-3-3v-2l-3-2z" fill="#7B7FB8"/>
<path transform="translate(1016,1312)" d="m0 0h2l-2 6-4 6h-2v2h-2l1-4z" fill="#9096E0"/>
<path transform="translate(480,1248)" d="m0 0h2l2 11v7h-2v-10h-2z" fill="#505EE4"/>
<path transform="translate(452,1248)" d="m0 0h9l-3 2h-2v2h-8v-3z" fill="#5A67E5"/>
<path transform="translate(1625,1153)" d="m0 0 3 4v3h2v8l-2-2-3-7-1-5z" fill="#4C5AE4"/>
<path transform="translate(1392,1081)" d="m0 0 7 6 4 4-1 3-2-1v-3h-2l-2-2-2-1-2-2z" fill="#8991E3"/>
<path transform="translate(1216,1048)" d="m0 0 2 2-9 5-5-1 1-2 6-2z" fill="#9FA1B4"/>
<path transform="translate(1274,588)" d="m0 0 2 3 2 5h2l1 3 3 3h-4l-1-4h-3l-2-3z" fill="#5260E4"/>
<path transform="translate(1040,560)" d="m0 0h4v4h3v2l2 1-3 2-2-3h-4z" fill="#8C878A"/>
<path transform="translate(1131,543)" d="m0 0h3l-1 8-1 5-2-2v-10z" fill="#878495"/>
<path transform="translate(911,505)" d="m0 0 4 1-3 9-2 1v-2l-2-1z" fill="#888597"/>
<path transform="translate(803,1376)" d="m0 0h3l-1 6-3 4-2-1v-5h3l-1-3z" fill="#8C878A"/>
<path transform="translate(1278,1280)" d="m0 0h2v8h-2v6h-2v-8z" fill="#9096E1"/>
<path transform="translate(1404,1094)" d="m0 0h2l6 8-1 4v-2l-3-1v-4h-4-2v-4z" fill="#858DE6"/>
<path transform="translate(1098,818)" d="m0 0 2 1-1 4-6 4-3-1 1-2h3v-4h4z" fill="#8D8990"/>
<path transform="translate(735,700)" d="m0 0h1l-1 9-1 3h-2v4h-2l2-9z" fill="#4D5BE4"/>
<path transform="translate(1144,639)" d="m0 0 1 2h2l-1 6-4 1-1-7z" fill="#8A8792"/>
<path transform="translate(1187,604)" d="m0 0h9l-2 4h-8z" fill="#8D8887"/>
<path transform="translate(1284,242)" d="m0 0h6v5l-5 1-1-1z" fill="#010103"/>
<path transform="translate(840,1676)" d="m0 0h4l1 2 19 1v1h-20l-6-2z" fill="#636FE7"/>
<path transform="translate(990,1658)" d="m0 0h6l-4 2v4h-8l3-1v-3h3z" fill="#6571E6"/>
<path transform="translate(1135,1596)" d="m0 0 3 1-1 3-6 1v2l-6 4v-3z" fill="#757EE6"/>
<path transform="translate(1054,1589)" d="m0 0h7l1 3 4 1-1 2-11-3z" fill="#8890E6"/>
<path transform="translate(744,1440)" d="m0 0 8 3v2l3 1-2 2-11-5 2-1z" fill="#85849E"/>
<path transform="translate(476,1244)" d="m0 0h4v2l-8 2h-10l2-2z" fill="#4D5BE4"/>
<path transform="translate(773,716)" d="m0 0 9 1 2 1v2h-4v-2h-6l-1 7h-1v-8z" fill="#5663E5"/>
<path transform="translate(1274,273)" d="m0 0 2 1v6h-4v-2h-2v-4z" fill="#010103"/>
<path transform="translate(948,1554)" d="m0 0h9l3 3v2l-5-1-7-3z" fill="#8991E6"/>
<path transform="translate(418,1292)" d="m0 0h4v16l-2-4v-10h-2z" fill="#636FE7"/>
<path transform="translate(1538,1152)" d="m0 0h2l3 7 1 3h2v6l-3-4-4-7z" fill="#505DE4"/>
<path transform="translate(714,800)" d="m0 0h6v6h-4v-2h-2z" fill="#5D69E4"/>
<path transform="translate(786,714)" d="m0 0h10v2h4v3l-5-1-9-3z" fill="#4B59E4"/>
<path transform="translate(1047,634)" d="m0 0 4 2 3 2 1 3 2 2-4-1-5-3z" fill="#04043B"/>
<path transform="translate(762,630)" d="m0 0h11l7 3v1h-6v-2h-12z" fill="#5461E5"/>
<path transform="translate(1565,598)" d="m0 0 2 2 2 9-5-5-2-4z" fill="#B3B8D1"/>
<path transform="translate(955,1563)" d="m0 0 7 1 5 2v2h-7l-4-2z" fill="#898692"/>
<path transform="translate(709,1440)" d="m0 0h6l1 2h-7v2l-11-2v-1z" fill="#868EE6"/>
<path transform="translate(912,1324)" d="m0 0h12l4 2v2h-5l-1-1-10-2z" fill="#636FE7"/>
<path transform="translate(1346,1308)" d="m0 0 1 4-5 11h-2l1-5 3-9z" fill="#B8BEDB"/>
<path transform="translate(1620,1190)" d="m0 0h2v2l-11 6-2-1 1-3z" fill="#4E5CE4"/>
<path transform="translate(1550,1176)" d="m0 0h2l1 4h5l1 4h-5l-4-6z" fill="#5663E5"/>
<path transform="translate(1347,1047)" d="m0 0 11 7 1 2h-6l-1-4-4-2z" fill="#858DE6"/>
<path transform="translate(1436,1008)" d="m0 0h2l-2 6-8 4-2-1 4-3h2v-2h2z" fill="#5461E5"/>
<path transform="translate(998,736)" d="m0 0h5l-1 4-5 3-1-6z" fill="#8B8794"/>
<path transform="translate(754,622)" d="m0 0h2v8l-3 7h-1v-7z" fill="#515FE4"/>
<path transform="translate(1055,1642)" d="m0 0h7l4 2 2 4h-4v-2h-2v-2h-6z" fill="#636FE7"/>
<path transform="translate(672,1545)" d="m0 0 6 2 2 1v2l3 1v1h-5v-2h-2v-2h-4z" fill="#9297DA"/>
<path transform="translate(1282,1440)" d="m0 0 1 2-2 6-6 4 1-4z" fill="#848CDC"/>
<path transform="translate(1086,1410)" d="m0 0 9 3 3 3-8-1-2-2-6-1z" fill="#8990E6"/>
<path transform="translate(1354,1290)" d="m0 0 1 3-5 12h-2l2-9 2-4h2z" fill="#C7CCDA"/>
<path transform="translate(1054,1270)" d="m0 0h2v4l-6 4-4 2v-2h2l2-4 4-2z" fill="#9097DF"/>
<path transform="translate(1581,1176)" d="m0 0 3 1-4 3-8 4-4-1z" fill="#4F5DE4"/>
<path transform="translate(1598,1106)" d="m0 0h4l-1 4 5-2 4 1-8 4h-2z" fill="#5865E5"/>
<path transform="translate(991,915)" d="m0 0h1v13l-4 1z" fill="#898592"/>
<path transform="translate(334,886)" d="m0 0h4l2 3v3h-5l-1-1z" fill="#9BA4E5"/>
<path transform="translate(947,784)" d="m0 0 4 1 1 3h2v2h2l-1 4-1-2h-2z" fill="#868498"/>
<path transform="translate(940,770)" d="m0 0h2v2h2v6l-4-2-2-5z" fill="#87869B"/>
<path transform="translate(750,640)" d="m0 0 2 1-5 12-3 1v-2l2-1 1-7 1-2h2z" fill="#5A67E5"/>
<path transform="translate(776,1617)" d="m0 0 10 1-3 3-12-2v-1z" fill="#8A91E6"/>
<path transform="translate(993,1591)" d="m0 0 3 1-2 2-8 2v2l-3-1 2-2-1-2z" fill="#636FE6"/>
<path transform="translate(1032,1590)" d="m0 0 10 2 2 2h-10v-2l-4-1z" fill="#6C77E6"/>
<path transform="translate(1080,1445)" d="m0 0 3 1 2 3 2-1 1 6-4-1-4-6z" fill="#878FE6"/>
<path transform="translate(454,1328)" d="m0 0h8l-3 2h-3v2l-9 1v-1h5v-3z" fill="#5A67E5"/>
<path transform="translate(1616,1152)" d="m0 0h2l3 8 1 1v5l-2-4h-2l-2-6z" fill="#5664E5"/>
<path transform="translate(1177,1134)" d="m0 0 2 2-8 7h-3l2-5 6-2z" fill="#828BE6"/>
<path transform="translate(1621,870)" d="m0 0 3 1v5l-1-2h-3l-2 6h-2l2-6z" fill="#717BE2"/>
<path transform="translate(1155,774)" d="m0 0 1 3-1 7h-3l-1 4-1-4z" fill="#646FE3"/>
<path transform="translate(811,692)" d="m0 0 1 4-4 8h-2l1-5 3-6z" fill="#5361E5"/>
<path transform="translate(1054,639)" d="m0 0 9 5-1 3-4-1-3-3z" fill="#01016F"/>
<path transform="translate(1024,632)" d="m0 0 3 1 2 9-5-2z" fill="#8A868F"/>
<path transform="translate(1242,262)" d="m0 0h2v2h2v4l-4 1-2-1v-4h2z" fill="#010103"/>
<path transform="translate(943,1625)" d="m0 0 6 1-2 2-8 1-1-3z" fill="#878FE6"/>
<path transform="translate(965,1611)" d="m0 0 2 2-6 6-3-1h2l1-5z" fill="#8A91E6"/>
<path transform="translate(656,1578)" d="m0 0 4 1v2l3 1-2 3-6-3z" fill="#747EE6"/>
<path transform="translate(1063,1499)" d="m0 0 5 3v2h-8l1-4z" fill="#8F96E6"/>
<path transform="translate(1066,1280)" d="m0 0 4 1-1 10h-3v-4h2l-1-5-2-1z" fill="#6470E6"/>
<path transform="translate(679,1149)" d="m0 0 2 1-2 13-3-4z" fill="#9095CD"/>
<path transform="translate(1157,1117)" d="m0 0 2 3-3 8-3-2 2-6z" fill="#878FE6"/>
<path transform="translate(1171,1089)" d="m0 0 5 5-4-1 1 7-4-2v-6h2z" fill="#8B93E6"/>
<path transform="translate(1124,899)" d="m0 0 3 2-6 7h-1v-5z" fill="#8D8989"/>
<path transform="translate(717,651)" d="m0 0 9 2 4 2-4 1-6-2h-2l-1 2-2-1z" fill="#4D5BE4"/>
<path transform="translate(1285,558)" d="m0 0h1v5l-2 3h-2v2h-2v-4h2l2-5z" fill="#5562E5"/>
<path transform="translate(632,1568)" d="m0 0h7v2l3 1v2l-5-1-5-3z" fill="#8890E6"/>
<path transform="translate(461,1290)" d="m0 0h3v2h-2v14h-1l-1-6v-9z" fill="#4C5AE4"/>
<path transform="translate(799,1252)" d="m0 0h2l4 12-1 2-2-2z" fill="#8F96E6"/>
<path transform="translate(416,1210)" d="m0 0h12v2l-12 1z" fill="#5966E5"/>
<path transform="translate(1639,1146)" d="m0 0h3v2l-4 2h-6l-1 3-3-2 6-3z" fill="#4E5CE4"/>
<path transform="translate(1560,1140)" d="m0 0h2v2h-2v2h-4v2h-7l2-2 7-3z" fill="#515EE4"/>
<path transform="translate(357,1140)" d="m0 0h4l-2 4-3 4h-2l1-4z" fill="#4B59E4"/>
<path transform="translate(1146,1121)" d="m0 0 3 1-2 6-3 6-1-3z" fill="#9799B3"/>
<path transform="translate(809,714)" d="m0 0h1v7l-4 5h-6v-1l5-1z" fill="#4B59E4"/>
<path transform="translate(382,672)" d="m0 0h2l-3 10-3 4 2-12h2z" fill="#5B68E6"/>
<path transform="translate(1322,558)" d="m0 0 5 5 1 5h-2v-2h-2z" fill="#525FE4"/>
<path transform="translate(509,494)" d="m0 0h5l-2 4h-8v-2z" fill="#C8CFE6"/>
<path transform="translate(784,1588)" d="m0 0h5l3 3-1 1h-7z" fill="#4352E3"/>
<path transform="translate(863,1347)" d="m0 0 8 1-3 2-6 1-4-1v-2z" fill="#636FE7"/>
<path transform="translate(849,1346)" d="m0 0 9 1v3l-10-1z" fill="#707BE6"/>
<path transform="translate(352,1110)" d="m0 0 6 4 3 4v2l-3-1-2-4-4-1-1-3z" fill="#515FE4"/>
<path transform="translate(503,898)" d="m0 0h1v14h-3z" fill="#989AAE"/>
<path transform="translate(1615,880)" d="m0 0h3l-1 4-2 5h-3z" fill="#C8CFE6"/>
<path transform="translate(813,678)" d="m0 0h7v2h2v5l-1-3-5-1z" fill="#5B68E6"/>
<path transform="translate(1284,594)" d="m0 0 4 1 2 1v2h2v2h4v2l-5-1-7-6z" fill="#4C5AE4"/>
</svg>
