<?xml version="1.0" encoding="UTF-8"?>
<svg version="1.1" viewBox="0 0 1446 1456" width="1446" height="1456" xmlns="http://www.w3.org/2000/svg">
<path transform="translate(717,304)" d="m0 0h40l31 3 28 5 24 6 27 9 26 11 26 13 20 12 16 11 12 9 10 8 14 12 15 14 9 9 7 8 13 15 12 16 16 24 11 19 10 19 11 26 12 36 7 30 4 26 2 24v39l-3 32-5 29-8 31-9 26-10 23-9 19-14 24-12 18-12 16-9 11-12 14-25 25-11 9-12 10-18 13-17 11-21 12-27 13-29 11-31 9-30 6-24 3-12 1h-51l-29-3-27-5-28-7-29-10-26-11-19-10-7-8-2-7v-54l1-99v-178l3-27 5-22 6-18 11-23 10-15 11-14 21-21 16-12 15-9 16-8 15-6 21-6 17-3 9-1h33l21 3 19 5 19 7 16 8 14 8 12 9 13 11 14 14 11 14 10 15 8 15 8 20 6 21 3 16 1 8v37l-4 25-8 26-7 16-11 19-10 14-13 15-9 9-11 9-14 10-17 10-21 9-19 6-20 4-20 2h-16l-21-2-20-4-24-8-21-9-3-1 1 75 1 24 5 5 9 4 26 6 27 4 11 1h45l24-3 24-5 30-10 24-11 19-11 16-11 14-11 14-12 24-24 9-11 13-17 12-19 10-18 10-23 8-24 6-26 3-20 1-12v-36l-3-26-6-29-11-33-8-18-10-20-14-22-12-16-9-11-14-15-15-14-17-13-21-14-22-12-23-10-24-8-25-6-28-4-15-1h-24l-24 2-24 4-27 7-25 9-29 14-21 13-19 14-15 13-20 20-9 11-10 13-10 15-12 21-9 19-9 24-7 26-5 30-1 10-1 53-1 378-4 18-5 13-6 11-7 9-8 9-12 9-15 8-16 5-13 2h-9l-1-41v-420l1-48 3-31 5-30 6-26 12-36 10-24 13-26 14-23 12-17 11-14 13-15 16-17 20-18 14-11 15-11 17-11 21-12 24-12 25-10 27-9 28-7 29-5zm7 289-15 3-16 6-14 8-13 11-10 11-8 13-6 13-4 14-1 7v20l3 15 6 16 9 15 11 12 7 7 15 10 13 6 13 4 14 2h13l14-2 16-5 16-8 14-11 7-7 10-14 8-17 4-15 1-6v-23l-3-15-6-16-9-15-11-12-10-9-15-9-16-6-15-3z" fill="currentColor"/>
</svg>
